<svg width="516" height="417" viewBox="0 0 516 417" fill="none" xmlns="http://www.w3.org/2000/svg">
<g clip-path="url(#clip0_12_180)">
<path d="M89.6729 283.268H88.0317C87.8141 283.268 87.6055 283.181 87.4517 283.027C87.2978 282.874 87.2113 282.665 87.2111 282.447V280.805C87.2113 280.588 87.2978 280.379 87.4517 280.225C87.6055 280.071 87.8141 279.985 88.0317 279.984H89.6729C89.8904 279.985 90.099 280.071 90.2529 280.225C90.4067 280.379 90.4932 280.588 90.4935 280.805V282.447C90.4932 282.665 90.4067 282.874 90.2529 283.027C90.099 283.181 89.8904 283.268 89.6729 283.268V283.268Z" fill="#CCCCCC"/>
<path d="M88.8831 281.459C88.8518 281.459 88.8206 281.456 88.7897 281.451C88.7189 281.439 88.6512 281.413 88.5905 281.374C88.5297 281.336 88.4771 281.286 88.4356 281.228C88.3941 281.169 88.3647 281.103 88.3488 281.032C88.333 280.962 88.3311 280.89 88.3432 280.819L93.7535 249.325C93.779 249.183 93.8596 249.056 93.9779 248.973C94.0961 248.89 94.2424 248.857 94.3848 248.882C94.5272 248.906 94.6541 248.986 94.7378 249.104C94.8216 249.222 94.8554 249.368 94.8319 249.511L89.4216 281.004C89.3997 281.132 89.3337 281.247 89.2352 281.33C89.1367 281.413 89.012 281.459 88.8831 281.459Z" fill="#CCCCCC"/>
<path d="M88.8818 281.459C88.7529 281.459 88.6282 281.413 88.5297 281.33C88.4311 281.247 88.3651 281.132 88.3432 281.004L82.9331 249.511C82.9095 249.368 82.9433 249.222 83.0271 249.104C83.1109 248.986 83.2378 248.906 83.3802 248.882C83.5225 248.857 83.6688 248.89 83.7871 248.973C83.9054 249.056 83.986 249.183 84.0114 249.325L89.4216 280.819C89.4338 280.89 89.4319 280.962 89.416 281.032C89.4002 281.103 89.3707 281.169 89.3292 281.227C89.2877 281.286 89.2351 281.336 89.1744 281.374C89.1136 281.413 89.0459 281.439 88.9751 281.451C88.9443 281.456 88.913 281.459 88.8818 281.459V281.459Z" fill="#CCCCCC"/>
<path d="M100.53 243.934C101.057 240.197 99.0618 236.825 96.0729 236.403C93.0839 235.98 90.2336 238.668 89.7062 242.406C89.2614 245.558 90.6146 248.442 92.8414 249.524L92.7146 250.423L95.4204 250.805L95.5472 249.906C97.9863 249.484 100.085 247.086 100.53 243.934Z" fill="#FF6584"/>
<path d="M87.9653 242.233C87.3178 238.515 84.3825 235.92 81.4086 236.439C78.4347 236.957 76.5491 240.391 77.1966 244.11C77.7426 247.246 79.9172 249.574 82.3687 249.918L82.5244 250.812L85.2165 250.343L85.0609 249.449C87.2517 248.296 88.5113 245.37 87.9653 242.233Z" fill="#CCCCCC"/>
<path d="M88.8522 280.805C88.7071 280.805 88.568 280.748 88.4654 280.645C88.3628 280.542 88.3052 280.403 88.3052 280.258V247.882C88.3045 247.81 88.3182 247.738 88.3454 247.671C88.3726 247.604 88.4128 247.544 88.4637 247.492C88.5145 247.441 88.5751 247.4 88.6417 247.372C88.7084 247.345 88.78 247.33 88.8522 247.33C88.9245 247.33 88.996 247.345 89.0627 247.372C89.1294 247.4 89.1899 247.441 89.2408 247.492C89.2916 247.544 89.3318 247.604 89.359 247.671C89.3862 247.738 89.3999 247.81 89.3993 247.882V280.258C89.3993 280.403 89.3416 280.542 89.239 280.645C89.1365 280.748 88.9973 280.805 88.8522 280.805Z" fill="#CCCCCC"/>
<path d="M93.9787 241.663C93.9787 237.889 91.5318 234.829 88.5133 234.829C85.4947 234.829 83.0479 237.889 83.0479 241.663C83.0479 244.847 84.7908 247.514 87.1469 248.274V249.181H89.8796V248.274C92.2357 247.514 93.9787 244.847 93.9787 241.663Z" fill="#EE4B6A"/>
<path d="M343.606 417L343.496 416.99L172.395 401.089L16.8059 415.548C14.675 415.746 12.5262 415.497 10.497 414.817C8.46772 414.137 6.60261 413.041 5.02091 411.599C3.4392 410.157 2.17569 408.4 1.31114 406.442C0.446582 404.484 1.02476e-05 402.366 -2.42146e-05 400.225V30.0464C-0.0157302 26.207 1.41025 22.5016 3.99559 19.6639C6.58094 16.8262 10.1372 15.0631 13.9601 14.7237L172.395 0L172.504 0.0103985L343.606 15.9109L499.194 1.45196C501.325 1.25393 503.474 1.50288 505.503 2.18288C507.532 2.86288 509.397 3.95898 510.979 5.4011C512.561 6.84322 513.824 8.59964 514.689 10.5581C515.553 12.5165 516 14.6338 516 16.7747V386.953C516.016 390.793 514.59 394.498 512.004 397.336C509.419 400.174 505.863 401.937 502.04 402.276L343.606 417ZM172.395 398.711L172.504 398.722L343.606 414.622L501.821 399.919C505.056 399.632 508.065 398.14 510.252 395.739C512.44 393.338 513.647 390.202 513.633 386.953V16.7747C513.633 14.9632 513.255 13.1716 512.524 11.5144C511.792 9.85729 510.723 8.37107 509.385 7.15079C508.047 5.93051 506.468 5.00302 504.751 4.42762C503.034 3.85221 501.216 3.64154 499.413 3.80909L343.606 18.2888L343.496 18.2784L172.395 2.37794L14.179 17.0808L14.0696 15.9023L14.179 17.0808C10.9442 17.3681 7.93511 18.8601 5.74753 21.2612C3.55994 23.6624 2.35333 26.7977 2.36658 30.0465V400.225C2.3666 402.037 2.74446 403.828 3.476 405.486C4.20754 407.143 5.27666 408.629 6.61502 409.849C7.95339 411.069 9.53154 411.997 11.2486 412.572C12.9657 413.148 14.7838 413.358 16.5869 413.191L172.395 398.711Z" fill="#E6E6E6"/>
<path d="M493 94.7413C493 84.2148 484.464 59.2358 473.935 59.2358C463.405 59.2358 454.869 84.2148 454.869 94.7413C454.872 99.7977 456.882 104.646 460.457 108.22C464.032 111.795 468.88 113.803 473.935 113.803C478.989 113.803 483.837 111.795 487.412 108.22C490.987 104.646 492.997 99.7977 493 94.7413V94.7413Z" fill="#3F3D56"/>
<path d="M473.935 136.976C473.877 136.976 473.821 136.953 473.78 136.913C473.74 136.872 473.717 136.816 473.717 136.758V92.2341C473.717 92.1765 473.74 92.1214 473.781 92.0807C473.822 92.0401 473.877 92.0173 473.935 92.0173C473.992 92.0173 474.047 92.0401 474.088 92.0807C474.129 92.1214 474.152 92.1765 474.153 92.2341V136.758C474.153 136.787 474.147 136.815 474.136 136.842C474.125 136.868 474.109 136.892 474.089 136.912C474.069 136.933 474.044 136.949 474.018 136.96C473.992 136.971 473.963 136.976 473.935 136.976V136.976Z" fill="#CCCCCC"/>
<path d="M473.935 100.553C473.903 100.553 473.873 100.546 473.844 100.533C473.816 100.52 473.79 100.501 473.77 100.478L462.805 87.8276C462.767 87.7838 462.748 87.7269 462.753 87.6693C462.757 87.6117 462.784 87.5582 462.827 87.5203C462.871 87.4825 462.928 87.4635 462.985 87.4675C463.043 87.4715 463.096 87.4982 463.134 87.5417L474.099 100.192C474.127 100.223 474.144 100.262 474.15 100.304C474.156 100.345 474.15 100.387 474.133 100.425C474.116 100.463 474.088 100.496 474.053 100.518C474.017 100.541 473.977 100.553 473.935 100.553V100.553Z" fill="#CCCCCC"/>
<path d="M473.935 107.853C473.891 107.853 473.849 107.841 473.813 107.817C473.778 107.793 473.75 107.759 473.733 107.719C473.717 107.679 473.712 107.635 473.721 107.593C473.729 107.55 473.75 107.512 473.78 107.481L480.011 101.248C480.031 101.228 480.055 101.212 480.082 101.201C480.108 101.19 480.137 101.184 480.165 101.184C480.194 101.184 480.222 101.19 480.249 101.201C480.275 101.212 480.299 101.228 480.319 101.248C480.34 101.268 480.356 101.292 480.367 101.319C480.377 101.345 480.383 101.374 480.383 101.402C480.383 101.431 480.377 101.459 480.367 101.486C480.356 101.512 480.34 101.536 480.319 101.556L474.089 107.789C474.069 107.81 474.045 107.826 474.018 107.837C473.992 107.848 473.963 107.853 473.935 107.853V107.853Z" fill="#CCCCCC"/>
<path d="M453.285 136.687C453.285 134.576 454.123 132.55 455.616 131.057C457.109 129.564 459.133 128.725 461.244 128.725C463.355 128.725 465.38 129.564 466.872 131.057C468.365 132.55 469.204 134.576 469.204 136.687" fill="#F2F2F2"/>
<path d="M461.244 136.687C461.187 136.687 461.132 136.665 461.092 136.624C461.052 136.584 461.029 136.529 461.029 136.472V132.276C461.029 132.219 461.052 132.164 461.092 132.124C461.132 132.083 461.187 132.061 461.244 132.061C461.301 132.061 461.356 132.083 461.396 132.124C461.437 132.164 461.459 132.219 461.459 132.276V136.472C461.459 136.529 461.437 136.584 461.396 136.624C461.356 136.665 461.301 136.687 461.244 136.687V136.687Z" fill="#CCCCCC"/>
<path d="M461.244 135.245C461.193 135.245 461.143 135.227 461.104 135.193L458.523 132.977C458.501 132.959 458.484 132.936 458.471 132.911C458.458 132.886 458.45 132.858 458.448 132.83C458.446 132.802 458.45 132.774 458.458 132.747C458.467 132.72 458.481 132.695 458.5 132.674C458.518 132.652 458.54 132.635 458.566 132.622C458.591 132.609 458.618 132.601 458.646 132.599C458.675 132.597 458.703 132.6 458.73 132.609C458.757 132.618 458.781 132.632 458.803 132.65L461.384 134.867C461.418 134.896 461.441 134.934 461.452 134.976C461.463 135.019 461.461 135.064 461.446 135.105C461.431 135.146 461.403 135.182 461.367 135.207C461.331 135.232 461.288 135.245 461.244 135.245H461.244Z" fill="#CCCCCC"/>
<path d="M477.808 136.687C477.808 134.576 478.647 132.55 480.139 131.057C481.632 129.564 483.657 128.725 485.768 128.725C487.879 128.725 489.903 129.564 491.396 131.057C492.888 132.55 493.727 134.576 493.727 136.687" fill="#F2F2F2"/>
<path d="M485.768 136.687C485.711 136.687 485.656 136.665 485.616 136.624C485.575 136.584 485.553 136.529 485.553 136.472V132.276C485.553 132.219 485.575 132.164 485.616 132.124C485.656 132.083 485.711 132.061 485.768 132.061C485.825 132.061 485.879 132.083 485.92 132.124C485.96 132.164 485.983 132.219 485.983 132.276V136.472C485.983 136.529 485.96 136.584 485.92 136.624C485.879 136.665 485.825 136.687 485.768 136.687V136.687Z" fill="#CCCCCC"/>
<path d="M485.768 135.245C485.716 135.245 485.667 135.227 485.628 135.193L483.046 132.977C483.003 132.94 482.977 132.887 482.973 132.83C482.968 132.774 482.987 132.717 483.024 132.674C483.061 132.631 483.114 132.604 483.17 132.6C483.227 132.595 483.283 132.614 483.326 132.65L485.908 134.867C485.941 134.895 485.965 134.934 485.976 134.976C485.987 135.019 485.985 135.064 485.969 135.105C485.954 135.146 485.927 135.182 485.891 135.207C485.854 135.232 485.812 135.245 485.768 135.245V135.245Z" fill="#CCCCCC"/>
<path d="M242.227 64.5919C247.456 57.104 253.792 35.0921 246.302 29.8574C238.812 24.6228 220.332 38.1477 215.103 45.6356C212.592 49.2339 211.612 53.6826 212.379 58.0033C213.146 62.3241 215.597 66.1631 219.193 68.6763C222.789 71.1895 227.236 72.1711 231.555 71.4052C235.875 70.6392 239.713 68.1885 242.227 64.5919V64.5919Z" fill="#F2F2F2"/>
<path d="M207.684 85.1571C207.643 85.1283 207.615 85.0844 207.606 85.035C207.597 84.9855 207.609 84.9347 207.637 84.8935L229.755 53.222C229.784 53.1808 229.828 53.1528 229.877 53.144C229.926 53.1352 229.977 53.1464 230.018 53.1752C230.059 53.2039 230.087 53.2479 230.096 53.2973C230.105 53.3467 230.094 53.3976 230.065 53.4387L207.948 85.1103C207.919 85.1514 207.875 85.1795 207.826 85.1882C207.776 85.197 207.725 85.1858 207.684 85.1571V85.1571Z" fill="#CCCCCC"/>
<path d="M225.778 59.2477C225.755 59.2322 225.737 59.2121 225.723 59.1888C225.709 59.1654 225.701 59.1393 225.698 59.1123L224.182 44.6627C224.177 44.6128 224.192 44.5628 224.223 44.5238C224.255 44.4848 224.301 44.46 224.35 44.4547C224.4 44.4495 224.45 44.4643 224.489 44.4959C224.528 44.5275 224.553 44.5733 224.558 44.6232L226.074 59.0728C226.078 59.1089 226.071 59.1453 226.055 59.1777C226.039 59.21 226.013 59.2371 225.982 59.2555C225.951 59.2739 225.915 59.283 225.879 59.2816C225.843 59.2802 225.808 59.2685 225.778 59.2477L225.778 59.2477Z" fill="#CCCCCC"/>
<path d="M222.151 64.4409C222.12 64.4194 222.097 64.3894 222.083 64.3545C222.07 64.3196 222.067 64.2815 222.075 64.245C222.083 64.2084 222.102 64.1751 222.129 64.1492C222.156 64.1233 222.19 64.106 222.226 64.0994L229.755 62.7631C229.779 62.7586 229.804 62.7589 229.829 62.7642C229.853 62.7695 229.876 62.7795 229.897 62.7937C229.917 62.808 229.935 62.8261 229.948 62.8471C229.962 62.8681 229.971 62.8916 229.975 62.9161C229.979 62.9407 229.979 62.9659 229.973 62.9902C229.968 63.0146 229.958 63.0376 229.944 63.058C229.929 63.0784 229.911 63.0958 229.89 63.1091C229.869 63.1224 229.845 63.1315 229.821 63.1357L222.292 64.4721C222.268 64.4764 222.243 64.4759 222.219 64.4706C222.194 64.4652 222.171 64.4551 222.151 64.4409Z" fill="#CCCCCC"/>
<path d="M193.139 74.6857C194.19 73.1882 195.791 72.1688 197.593 71.8512C199.394 71.5336 201.248 71.9437 202.747 72.9915C204.246 74.0394 205.269 75.6395 205.591 77.4407C205.912 79.2419 205.506 81.0971 204.462 82.5995" fill="#F2F2F2"/>
<path d="M198.801 78.6426C198.76 78.6142 198.732 78.5709 198.724 78.5221C198.715 78.4734 198.726 78.4232 198.754 78.3826L200.839 75.3975C200.868 75.3573 200.911 75.3299 200.959 75.3214C201.008 75.313 201.058 75.3241 201.098 75.3523C201.139 75.3806 201.166 75.4237 201.175 75.4722C201.184 75.5208 201.173 75.5708 201.145 75.6114L199.06 78.5965C199.032 78.6371 198.989 78.6647 198.94 78.6734C198.891 78.682 198.841 78.671 198.801 78.6426V78.6426Z" fill="#CCCCCC"/>
<path d="M199.517 77.6168C199.48 77.5913 199.454 77.5535 199.443 77.5103L198.708 74.6504C198.702 74.6266 198.7 74.6018 198.703 74.5774C198.707 74.5531 198.715 74.5296 198.727 74.5084C198.74 74.4872 198.756 74.4687 198.776 74.4539C198.796 74.4391 198.818 74.4284 198.842 74.4223C198.866 74.4161 198.89 74.4148 198.915 74.4183C198.939 74.4217 198.963 74.43 198.984 74.4425C199.005 74.4551 199.023 74.4717 199.038 74.4914C199.053 74.5111 199.063 74.5335 199.069 74.5574L199.805 77.4173C199.814 77.4542 199.812 77.4932 199.799 77.529C199.785 77.5647 199.761 77.5955 199.73 77.6173C199.699 77.639 199.662 77.6506 199.623 77.6505C199.585 77.6504 199.548 77.6387 199.517 77.6168V77.6168Z" fill="#CCCCCC"/>
<path d="M210.583 86.8772C211.102 86.1311 211.762 85.4947 212.527 85.0043C213.292 84.514 214.146 84.1793 215.04 84.0195C215.934 83.8598 216.851 83.878 217.738 84.0732C218.625 84.2684 219.465 84.6368 220.209 85.1572C220.954 85.6776 221.589 86.3398 222.077 87.1059C222.566 87.872 222.898 88.727 223.056 89.6218C223.213 90.5167 223.193 91.4339 222.996 92.3209C222.799 93.2079 222.429 94.0473 221.907 94.791" fill="#F2F2F2"/>
<path d="M216.245 90.8341C216.204 90.8057 216.177 90.7624 216.168 90.7136C216.16 90.6649 216.171 90.6147 216.199 90.5741L218.283 87.589C218.312 87.5484 218.355 87.5208 218.404 87.5121C218.453 87.5035 218.503 87.5145 218.543 87.5429C218.584 87.5713 218.612 87.6146 218.62 87.6634C218.629 87.7121 218.618 87.7623 218.59 87.8029L216.505 90.788C216.477 90.8286 216.433 90.8562 216.385 90.8649C216.336 90.8736 216.286 90.8625 216.245 90.8341V90.8341Z" fill="#CCCCCC"/>
<path d="M216.961 89.8083C216.925 89.7828 216.898 89.745 216.887 89.7018L216.152 86.8418C216.14 86.794 216.148 86.7433 216.173 86.7009C216.198 86.6585 216.239 86.6278 216.287 86.6155C216.335 86.6032 216.385 86.6103 216.428 86.6353C216.47 86.6603 216.501 86.7011 216.514 86.7488L217.249 89.6088C217.259 89.6457 217.257 89.6847 217.243 89.7205C217.23 89.7562 217.206 89.787 217.175 89.8088C217.143 89.8305 217.106 89.8421 217.068 89.842C217.03 89.8419 216.993 89.8302 216.961 89.8083Z" fill="#CCCCCC"/>
<path d="M349.512 227.926C353.718 231.791 357.897 235.684 362.049 239.604C360.984 239.663 359.878 239.711 358.742 239.746C357.138 239.799 355.47 239.823 353.718 239.823C334.507 239.823 324.757 236.668 315.338 233.614C306.392 230.72 297.943 227.985 280.596 227.985C263.243 227.985 254.793 230.72 245.854 233.614C236.429 236.668 226.678 239.823 207.467 239.823C188.25 239.823 178.506 236.668 169.081 233.614C160.342 230.785 152.076 228.11 135.522 227.991C135.131 227.985 134.741 227.985 134.339 227.985V216.148C134.735 216.148 135.131 216.148 135.522 216.154C153.958 216.278 163.495 219.368 172.725 222.351C181.671 225.251 190.12 227.985 207.467 227.985C224.814 227.985 233.263 225.251 242.209 222.351C251.634 219.302 261.379 216.148 280.596 216.148C299.807 216.148 309.551 219.302 318.976 222.351C326.449 224.771 333.578 227.08 345.838 227.772C347.015 227.843 348.234 227.891 349.512 227.926Z" fill="#EE4B6A"/>
<path d="M499.981 227.985V239.823C480.764 239.823 471.02 236.668 461.595 233.614C452.649 230.72 444.2 227.985 426.853 227.985C409.499 227.985 401.051 230.72 392.105 233.614C391.62 233.774 391.129 233.928 390.637 234.088C389.797 234.36 388.945 234.632 388.082 234.899C384.816 231.696 381.538 228.522 378.248 225.375C379.165 225.15 380.053 224.913 380.929 224.671C383.538 223.949 385.981 223.156 388.466 222.351C397.891 219.302 407.636 216.148 426.853 216.148C446.07 216.148 455.814 219.302 465.239 222.351C474.185 225.251 482.634 227.985 499.981 227.985Z" fill="#EE4B6A"/>
<path d="M238.511 136.948C205.39 112.817 170.542 89.9346 134.942 68.9405L133.155 67.887V139.09H241.452L238.511 136.948ZM135.522 136.723V72.0361C169.388 92.0772 202.55 113.823 234.175 136.723H135.522ZM406.133 283.279C391.809 268.381 377.114 253.823 362.049 239.604C357.895 235.68 353.716 231.787 349.512 227.926C323.852 204.346 297.347 181.919 269.999 160.647L269.68 160.398H133.155V285.286H408.062L406.133 283.279ZM135.522 282.918V162.766H268.869C295.239 183.286 320.895 204.955 345.838 227.772C350.168 231.732 354.47 235.723 358.742 239.746C373.675 253.786 388.259 268.176 402.494 282.918H135.522ZM406.133 283.279C391.809 268.381 377.114 253.823 362.049 239.604C357.895 235.68 353.716 231.787 349.512 227.926C323.852 204.346 297.347 181.919 269.999 160.647L269.68 160.398H133.155V285.286H408.062L406.133 283.279ZM135.522 282.918V162.766H268.869C295.239 183.286 320.895 204.955 345.838 227.772C350.168 231.732 354.47 235.723 358.742 239.746C373.675 253.786 388.259 268.176 402.494 282.918H135.522ZM238.511 136.948C205.39 112.817 170.542 89.9346 134.942 68.9405L133.155 67.887V139.09H241.452L238.511 136.948ZM135.522 136.723V72.0361C169.388 92.0772 202.55 113.823 234.175 136.723H135.522ZM238.511 136.948C205.39 112.817 170.542 89.9346 134.942 68.9405L133.155 67.887V139.09H241.452L238.511 136.948ZM135.522 136.723V72.0361C169.388 92.0772 202.55 113.823 234.175 136.723H135.522ZM406.133 283.279C391.809 268.381 377.114 253.823 362.049 239.604C357.895 235.68 353.716 231.787 349.512 227.926C323.852 204.346 297.347 181.919 269.999 160.647L269.68 160.398H133.155V285.286H408.062L406.133 283.279ZM135.522 282.918V162.766H268.869C295.239 183.286 320.895 204.955 345.838 227.772C350.168 231.732 354.47 235.723 358.742 239.746C373.675 253.786 388.259 268.176 402.494 282.918H135.522ZM16.0194 306.593V308.961H109.489V343.29H16.0194V345.658H111.856V306.593H16.0194ZM133.155 366.965V390.954L135.522 390.735V369.333H499.981V366.965H133.155ZM499.981 308.961V306.593H133.155V345.658H499.981V343.29H135.522V308.961H499.981ZM278.969 136.723C233.566 101.686 185.618 70.0808 135.522 42.1696V18.1984L133.155 18.4174V42.5742L134.978 44.5786C184.869 72.4138 232.623 103.922 277.844 138.842L278.164 139.09H499.981V136.723H278.969ZM109.489 136.723H16.0194V139.09H111.856V20.3943L109.489 20.6133V136.723ZM499.981 160.398H304.978L307.528 162.494C331.537 182.256 355.11 203.217 378.248 225.375C381.538 228.524 384.816 231.698 388.082 234.899C404.34 250.791 420.281 267.202 435.905 284.131L437.856 285.286H499.981V282.918H438.005C422.551 266.156 406.762 249.879 390.638 234.088C387.413 230.927 384.177 227.788 380.929 224.671C358.292 202.943 335.172 182.308 311.569 162.766H499.981V160.398ZM16.0194 366.965V369.333H109.489V393.15L111.856 392.931V366.965H16.0194ZM16.0194 160.398V162.766H109.489V282.918H16.0194V285.286H111.856V160.398H16.0194ZM238.511 136.948C205.39 112.817 170.542 89.9346 134.942 68.9405L133.155 67.887V139.09H241.452L238.511 136.948ZM135.522 136.723V72.0361C169.388 92.0772 202.55 113.823 234.175 136.723H135.522ZM406.133 283.279C391.809 268.381 377.114 253.823 362.049 239.604C357.895 235.68 353.716 231.787 349.512 227.926C323.852 204.346 297.347 181.919 269.999 160.647L269.68 160.398H133.155V285.286H408.062L406.133 283.279ZM135.522 282.918V162.766H268.869C295.239 183.286 320.895 204.955 345.838 227.772C350.168 231.732 354.47 235.723 358.742 239.746C373.675 253.786 388.259 268.176 402.494 282.918H135.522ZM238.511 136.948C205.39 112.817 170.542 89.9346 134.942 68.9405L133.155 67.887V139.09H241.452L238.511 136.948ZM135.522 136.723V72.0361C169.388 92.0772 202.55 113.823 234.175 136.723H135.522ZM406.133 283.279C391.809 268.381 377.114 253.823 362.049 239.604C357.895 235.68 353.716 231.787 349.512 227.926C323.852 204.346 297.347 181.919 269.999 160.647L269.68 160.398H133.155V285.286H408.062L406.133 283.279ZM135.522 282.918V162.766H268.869C295.239 183.286 320.895 204.955 345.838 227.772C350.168 231.732 354.47 235.723 358.742 239.746C373.675 253.786 388.259 268.176 402.494 282.918H135.522Z" fill="#3F3D56"/>
<path d="M300.409 217.458C300.409 207.034 308.856 182.298 319.276 182.298C329.696 182.298 338.143 207.034 338.143 217.458C338.143 222.463 336.156 227.264 332.617 230.804C329.079 234.343 324.28 236.332 319.276 236.332C314.272 236.332 309.473 234.343 305.935 230.804C302.397 227.264 300.409 222.463 300.409 217.458V217.458Z" fill="#F2F2F2"/>
<path d="M319.276 263.377C319.256 263.377 319.236 263.373 319.217 263.365C319.198 263.357 319.181 263.346 319.166 263.331C319.152 263.317 319.141 263.3 319.133 263.281C319.125 263.262 319.121 263.242 319.121 263.222V198.149C319.121 198.108 319.137 198.068 319.166 198.039C319.196 198.01 319.235 197.994 319.276 197.994C319.317 197.994 319.357 198.01 319.386 198.039C319.415 198.068 319.431 198.108 319.431 198.149V263.222C319.431 263.242 319.427 263.262 319.42 263.281C319.412 263.3 319.4 263.317 319.386 263.331C319.372 263.346 319.354 263.357 319.336 263.365C319.317 263.373 319.297 263.377 319.276 263.377V263.377Z" fill="#3F3D56"/>
<path d="M319.276 210.712C319.256 210.712 319.236 210.708 319.217 210.7C319.198 210.692 319.181 210.681 319.166 210.666L311.699 203.196C311.684 203.181 311.673 203.164 311.665 203.146C311.657 203.127 311.653 203.107 311.653 203.086C311.653 203.066 311.657 203.046 311.665 203.027C311.673 203.008 311.685 202.991 311.699 202.976C311.713 202.962 311.73 202.951 311.749 202.943C311.768 202.935 311.788 202.931 311.809 202.931C311.829 202.931 311.849 202.935 311.868 202.943C311.887 202.951 311.904 202.962 311.918 202.976L319.386 210.447C319.408 210.469 319.422 210.496 319.428 210.526C319.434 210.556 319.431 210.588 319.419 210.616C319.408 210.644 319.388 210.669 319.362 210.686C319.337 210.703 319.307 210.712 319.276 210.712V210.712Z" fill="#3F3D56"/>
<path d="M319.276 223.645C319.246 223.645 319.216 223.635 319.19 223.618C319.165 223.601 319.145 223.577 319.133 223.549C319.121 223.52 319.118 223.489 319.124 223.459C319.13 223.429 319.145 223.401 319.167 223.38L331.672 210.869C331.687 210.855 331.704 210.843 331.723 210.835C331.741 210.827 331.762 210.823 331.782 210.823C331.802 210.823 331.823 210.827 331.841 210.835C331.86 210.843 331.877 210.854 331.892 210.869C331.906 210.883 331.918 210.9 331.925 210.919C331.933 210.938 331.937 210.958 331.937 210.979C331.937 210.999 331.933 211.019 331.925 211.038C331.918 211.057 331.906 211.074 331.892 211.088L319.386 223.599C319.372 223.613 319.354 223.625 319.336 223.633C319.317 223.641 319.297 223.645 319.276 223.645V223.645Z" fill="#3F3D56"/>
<path d="M406.198 164.188C406.198 153.764 414.645 129.028 425.065 129.028C435.485 129.028 443.932 153.764 443.932 164.188C443.929 169.192 441.94 173.99 438.402 177.527C434.864 181.064 430.067 183.051 425.065 183.051C420.063 183.051 415.266 181.064 411.728 177.527C408.19 173.99 406.201 169.192 406.198 164.188V164.188Z" fill="#EE4B6A"/>
<path d="M425.065 210.107C425.044 210.107 425.024 210.103 425.005 210.096C424.987 210.088 424.969 210.076 424.955 210.062C424.941 210.048 424.929 210.03 424.921 210.012C424.914 209.993 424.91 209.973 424.91 209.952V144.88C424.91 144.838 424.926 144.799 424.955 144.77C424.984 144.741 425.024 144.724 425.065 144.724C425.106 144.724 425.145 144.741 425.174 144.77C425.204 144.799 425.22 144.838 425.22 144.88V209.952C425.22 209.973 425.216 209.993 425.208 210.012C425.2 210.03 425.189 210.048 425.174 210.062C425.16 210.076 425.143 210.088 425.124 210.096C425.105 210.103 425.085 210.107 425.065 210.107V210.107Z" fill="#3F3D56"/>
<path d="M425.065 157.442C425.044 157.442 425.024 157.438 425.005 157.431C424.987 157.423 424.969 157.411 424.955 157.397L417.487 149.926C417.458 149.897 417.442 149.858 417.442 149.817C417.442 149.776 417.458 149.736 417.487 149.707C417.517 149.678 417.556 149.661 417.597 149.661C417.638 149.662 417.678 149.678 417.707 149.707L425.174 157.177C425.196 157.199 425.211 157.227 425.217 157.257C425.223 157.287 425.22 157.318 425.208 157.347C425.196 157.375 425.176 157.399 425.151 157.416C425.125 157.433 425.095 157.442 425.065 157.442H425.065Z" fill="#3F3D56"/>
<path d="M425.065 170.375C425.034 170.375 425.004 170.366 424.979 170.349C424.953 170.332 424.933 170.308 424.921 170.279C424.91 170.251 424.907 170.22 424.913 170.19C424.919 170.159 424.933 170.132 424.955 170.11L437.461 157.599C437.49 157.571 437.529 157.555 437.57 157.555C437.611 157.555 437.651 157.571 437.68 157.6C437.709 157.629 437.725 157.668 437.725 157.709C437.725 157.75 437.709 157.79 437.68 157.819L425.175 170.33C425.16 170.344 425.143 170.355 425.124 170.363C425.105 170.371 425.085 170.375 425.065 170.375V170.375Z" fill="#3F3D56"/>
<path d="M174.56 169.515C174.56 159.091 183.007 134.355 193.427 134.355C203.847 134.355 212.294 159.091 212.294 169.515C212.294 174.521 210.307 179.322 206.768 182.861C203.23 186.401 198.431 188.39 193.427 188.39C188.423 188.39 183.624 186.401 180.086 182.861C176.548 179.322 174.56 174.521 174.56 169.515V169.515Z" fill="#EE4B6A"/>
<path d="M193.427 215.434C193.407 215.434 193.387 215.43 193.368 215.423C193.349 215.415 193.332 215.403 193.317 215.389C193.303 215.374 193.292 215.357 193.284 215.339C193.276 215.32 193.272 215.3 193.272 215.279V150.207C193.272 150.165 193.288 150.126 193.318 150.097C193.347 150.068 193.386 150.051 193.427 150.051C193.468 150.051 193.508 150.068 193.537 150.097C193.566 150.126 193.582 150.165 193.582 150.207V215.279C193.582 215.3 193.578 215.32 193.571 215.339C193.563 215.357 193.551 215.374 193.537 215.389C193.522 215.403 193.505 215.415 193.487 215.423C193.468 215.43 193.448 215.434 193.427 215.434V215.434Z" fill="#3F3D56"/>
<path d="M193.427 162.769C193.407 162.769 193.387 162.765 193.368 162.757C193.349 162.75 193.332 162.738 193.317 162.724L185.85 155.253C185.835 155.239 185.824 155.222 185.816 155.203C185.808 155.184 185.804 155.164 185.804 155.144C185.804 155.123 185.808 155.103 185.816 155.084C185.824 155.065 185.835 155.048 185.85 155.034C185.864 155.019 185.881 155.008 185.9 155C185.919 154.992 185.939 154.988 185.96 154.988C185.98 154.988 186 154.992 186.019 155C186.038 155.008 186.055 155.019 186.069 155.034L193.537 162.504C193.559 162.526 193.573 162.554 193.579 162.584C193.585 162.614 193.582 162.645 193.57 162.673C193.559 162.702 193.539 162.726 193.513 162.743C193.488 162.76 193.458 162.769 193.427 162.769V162.769Z" fill="#3F3D56"/>
<path d="M193.427 175.702C193.397 175.702 193.367 175.693 193.341 175.676C193.315 175.659 193.296 175.635 193.284 175.606C193.272 175.578 193.269 175.547 193.275 175.517C193.281 175.486 193.296 175.459 193.317 175.437L205.823 162.926C205.852 162.897 205.892 162.881 205.933 162.881C205.974 162.881 206.013 162.898 206.042 162.927C206.072 162.956 206.088 162.995 206.088 163.036C206.088 163.077 206.072 163.117 206.043 163.146L193.537 175.657C193.523 175.671 193.505 175.682 193.487 175.69C193.468 175.698 193.448 175.702 193.427 175.702V175.702Z" fill="#3F3D56"/>
<path d="M348.63 117.513C337.914 117.513 327.439 114.334 318.529 108.378C309.619 102.422 302.674 93.9573 298.573 84.0533C294.473 74.1493 293.4 63.2511 295.49 52.7371C297.581 42.223 302.741 32.5652 310.318 24.985C317.896 17.4048 327.55 12.2426 338.06 10.1512C348.57 8.05979 359.464 9.13317 369.364 13.2356C379.264 17.3379 387.726 24.2851 393.679 33.1985C399.633 42.1119 402.811 52.5912 402.811 63.3113C402.794 77.6814 397.081 91.4584 386.923 101.62C376.766 111.781 362.994 117.497 348.63 117.513V117.513ZM348.63 9.83725C338.058 9.83725 327.723 12.9734 318.933 18.8492C310.142 24.725 303.291 33.0766 299.245 42.8477C295.2 52.6188 294.141 63.3706 296.203 73.7435C298.266 84.1165 303.357 93.6446 310.833 101.123C318.308 108.602 327.833 113.695 338.202 115.758C348.571 117.821 359.318 116.762 369.086 112.715C378.853 108.667 387.201 101.814 393.075 93.0198C398.948 84.2261 402.083 73.8874 402.083 63.3113C402.067 49.134 396.43 35.542 386.409 25.5171C376.388 15.4923 362.802 9.85329 348.63 9.83727V9.83725Z" fill="#CCCCCC"/>
<path d="M348.63 59.3098C348.533 59.3098 348.441 59.2715 348.373 59.2033C348.305 59.135 348.266 59.0425 348.266 58.946V9.47347C348.266 9.377 348.305 9.28447 348.373 9.21625C348.441 9.14803 348.533 9.10971 348.63 9.10971C348.726 9.10971 348.819 9.14803 348.887 9.21625C348.955 9.28447 348.993 9.377 348.993 9.47347V58.946C348.993 59.0425 348.955 59.135 348.887 59.2033C348.819 59.2715 348.726 59.3098 348.63 59.3098V59.3098Z" fill="#CCCCCC"/>
<path d="M402.447 63.675H352.993C352.897 63.675 352.804 63.6367 352.736 63.5685C352.668 63.5003 352.63 63.4078 352.63 63.3113C352.63 63.2148 352.668 63.1223 352.736 63.0541C352.804 62.9858 352.897 62.9475 352.993 62.9475H402.447C402.543 62.9475 402.636 62.9858 402.704 63.0541C402.772 63.1223 402.81 63.2148 402.81 63.3113C402.81 63.4078 402.772 63.5003 402.704 63.5685C402.636 63.6367 402.543 63.675 402.447 63.675Z" fill="#CCCCCC"/>
<path d="M344.266 63.675H294.836C294.74 63.675 294.647 63.6367 294.579 63.5685C294.511 63.5003 294.473 63.4078 294.473 63.3113C294.473 63.2148 294.511 63.1223 294.579 63.0541C294.647 62.9858 294.74 62.9475 294.836 62.9475H344.266C344.363 62.9475 344.455 62.9858 344.523 63.0541C344.592 63.1223 344.63 63.2148 344.63 63.3113C344.63 63.4078 344.592 63.5003 344.523 63.5685C344.455 63.6367 344.363 63.675 344.266 63.675V63.675Z" fill="#CCCCCC"/>
<path d="M348.63 117.513C348.533 117.513 348.441 117.474 348.373 117.406C348.305 117.338 348.266 117.246 348.266 117.149V67.6765C348.266 67.58 348.305 67.4875 348.373 67.4193C348.441 67.351 348.533 67.3127 348.63 67.3127C348.726 67.3127 348.819 67.351 348.887 67.4193C348.955 67.4875 348.993 67.58 348.993 67.6765V117.149C348.993 117.246 348.955 117.338 348.887 117.406C348.819 117.474 348.726 117.513 348.63 117.513V117.513Z" fill="#CCCCCC"/>
<path d="M351.836 60.7191C351.764 60.7191 351.694 60.6977 351.634 60.6577C351.574 60.6178 351.528 60.561 351.5 60.4945C351.472 60.428 351.465 60.3549 351.479 60.2844C351.493 60.2138 351.528 60.149 351.579 60.0981L386.394 25.2696C386.462 25.2018 386.555 25.1638 386.651 25.164C386.747 25.1642 386.839 25.2025 386.907 25.2705C386.975 25.3386 387.013 25.4308 387.014 25.527C387.014 25.6233 386.976 25.7156 386.908 25.7839L352.093 60.6125C352.059 60.6463 352.019 60.6732 351.975 60.6915C351.931 60.7098 351.884 60.7191 351.836 60.7191V60.7191Z" fill="#CCCCCC"/>
<path d="M345.424 60.7191C345.376 60.7191 345.329 60.7098 345.285 60.6915C345.241 60.6732 345.2 60.6463 345.167 60.6125L310.352 25.7839C310.284 25.7156 310.246 25.6233 310.246 25.527C310.246 25.4308 310.285 25.3386 310.353 25.2705C310.421 25.2025 310.513 25.1642 310.609 25.164C310.705 25.1638 310.798 25.2018 310.866 25.2696L345.681 60.0981C345.732 60.149 345.766 60.2138 345.78 60.2844C345.794 60.3549 345.787 60.428 345.76 60.4945C345.732 60.561 345.686 60.6178 345.626 60.6577C345.566 60.6977 345.496 60.7191 345.424 60.7191Z" fill="#CCCCCC"/>
<path d="M386.651 101.46C386.603 101.46 386.556 101.45 386.512 101.432C386.468 101.414 386.428 101.387 386.394 101.353L351.579 66.5244C351.511 66.4561 351.473 66.3637 351.473 66.2675C351.473 66.1713 351.512 66.0791 351.58 66.011C351.648 65.943 351.74 65.9047 351.836 65.9045C351.932 65.9043 352.025 65.9423 352.093 66.01L386.908 100.839C386.959 100.889 386.994 100.954 387.008 101.025C387.022 101.095 387.014 101.169 386.987 101.235C386.959 101.301 386.913 101.358 386.853 101.398C386.793 101.438 386.723 101.46 386.651 101.46V101.46Z" fill="#CCCCCC"/>
<path d="M310.609 101.46C310.537 101.46 310.466 101.438 310.407 101.398C310.347 101.358 310.3 101.301 310.273 101.235C310.245 101.169 310.238 101.095 310.252 101.025C310.266 100.954 310.301 100.889 310.352 100.839L345.167 66.01C345.235 65.9418 345.327 65.9035 345.424 65.9035C345.52 65.9035 345.613 65.9418 345.681 66.01C345.749 66.0783 345.787 66.1708 345.787 66.2672C345.787 66.3637 345.749 66.4562 345.681 66.5244L310.866 101.353C310.832 101.387 310.792 101.414 310.748 101.432C310.704 101.45 310.656 101.46 310.609 101.46V101.46Z" fill="#CCCCCC"/>
<path d="M348.63 100.598C341.258 100.598 334.052 98.4107 327.923 94.3137C321.793 90.2166 317.016 84.3933 314.195 77.5801C311.374 70.7669 310.636 63.2699 312.074 56.0371C313.512 48.8042 317.062 42.1604 322.275 36.9459C327.487 31.7313 334.128 28.1801 341.358 26.7414C348.589 25.3027 356.083 26.0411 362.893 28.8632C369.704 31.6853 375.525 36.4644 379.62 42.5961C383.716 48.7278 385.902 55.9367 385.902 63.3113C385.891 73.1968 381.96 82.6742 374.973 89.6643C367.985 96.6544 358.512 100.586 348.63 100.598V100.598ZM348.63 26.7525C341.402 26.7525 334.336 28.8966 328.327 32.9138C322.317 36.9309 317.633 42.6406 314.867 49.3208C312.101 56.0011 311.377 63.3518 312.787 70.4435C314.197 77.5352 317.678 84.0494 322.789 89.1622C327.9 94.2751 334.411 97.757 341.5 99.1676C348.589 100.578 355.937 99.8542 362.615 97.0872C369.293 94.3201 375 89.6343 379.016 83.6223C383.031 77.6102 385.175 70.5419 385.175 63.3113C385.164 53.6187 381.31 44.3261 374.459 37.4724C367.608 30.6187 358.319 26.7635 348.63 26.7525V26.7525Z" fill="#CCCCCC"/>
<path d="M348.63 67.6765C351.04 67.6765 352.993 65.7221 352.993 63.3113C352.993 60.9004 351.04 58.946 348.63 58.946C346.22 58.946 344.266 60.9004 344.266 63.3113C344.266 65.7221 346.22 67.6765 348.63 67.6765Z" fill="#3F3D56"/>
<path d="M331.736 137.046L327.903 137.157L346.614 61.6035L350.092 62.6651L331.736 137.046Z" fill="#3F3D56"/>
<path d="M365.523 137.046L369.356 137.157L350.645 61.6035L347.168 62.6651L365.523 137.046Z" fill="#3F3D56"/>
<path d="M354.448 20.3865H342.448V26.9344H354.448V20.3865Z" fill="#CCCCCC"/>
<path d="M347.903 21.8416H343.175V26.9344H347.903V21.8416Z" fill="white"/>
<path d="M353.721 21.8416H348.993V26.9344H353.721V21.8416Z" fill="white"/>
<path d="M348.448 34.0279C346.616 34.0258 344.86 33.2969 343.565 32.0012C342.27 30.7055 341.541 28.9487 341.539 27.1163V26.9344C341.54 26.5004 341.712 26.0843 342.019 25.7774C342.326 25.4705 342.742 25.2979 343.175 25.2974H353.721C354.154 25.2979 354.57 25.4705 354.877 25.7774C355.184 26.0843 355.356 26.5004 355.357 26.9344V27.1163C355.355 28.9487 354.626 30.7055 353.331 32.0012C352.036 33.2969 350.28 34.0258 348.448 34.0279V34.0279Z" fill="#CCCCCC"/>
<path d="M353.998 22.0235H342.898C342.743 22.0235 342.59 21.9839 342.455 21.9084C342.32 21.8329 342.206 21.7241 342.124 21.5922C342.043 21.4603 341.996 21.3098 341.989 21.1549C341.982 21 342.015 20.846 342.085 20.7073L344.266 16.3421C344.341 16.1907 344.457 16.0633 344.601 15.9745C344.745 15.8856 344.91 15.8388 345.079 15.8394H351.817C351.986 15.8388 352.151 15.8856 352.295 15.9745C352.439 16.0633 352.555 16.1907 352.63 16.3421L354.812 20.7073C354.881 20.846 354.914 21 354.907 21.1549C354.9 21.3098 354.853 21.4603 354.772 21.5922C354.69 21.7241 354.576 21.8329 354.441 21.9084C354.306 21.9839 354.153 22.0235 353.998 22.0235H353.998Z" fill="#EE4B6A"/>
<path d="M386.811 34.9373H374.811V41.4852H386.811V34.9373Z" fill="#CCCCCC"/>
<path d="M380.266 36.3924H375.538V41.4852H380.266V36.3924Z" fill="white"/>
<path d="M386.084 36.3924H381.356V41.4852H386.084V36.3924Z" fill="white"/>
<path d="M380.811 48.5786C378.979 48.5766 377.223 47.8477 375.928 46.552C374.633 45.2563 373.904 43.4995 373.902 41.667V41.4852C373.903 41.0512 374.075 40.6351 374.382 40.3282C374.689 40.0213 375.105 39.8487 375.538 39.8482H386.084C386.517 39.8487 386.933 40.0213 387.24 40.3282C387.547 40.6351 387.719 41.0512 387.72 41.4852V41.667C387.718 43.4995 386.989 45.2563 385.694 46.552C384.399 47.8477 382.643 48.5766 380.811 48.5786V48.5786Z" fill="#CCCCCC"/>
<path d="M377.442 30.754C377.341 30.7536 377.242 30.7817 377.155 30.835C377.069 30.8883 377 30.9647 376.954 31.0556L374.773 35.4208C374.731 35.504 374.711 35.5964 374.716 35.6894C374.72 35.7823 374.748 35.8726 374.797 35.9517C374.845 36.0309 374.914 36.0962 374.995 36.1415C375.076 36.1868 375.168 36.2105 375.261 36.2105H386.361C386.454 36.2105 386.546 36.1868 386.627 36.1415C386.708 36.0962 386.776 36.0309 386.825 35.9517C386.874 35.8726 386.902 35.7823 386.906 35.6894C386.91 35.5964 386.891 35.504 386.849 35.4208L384.667 31.0556C384.622 30.9647 384.553 30.8883 384.467 30.835C384.38 30.7817 384.281 30.7536 384.18 30.754H377.442Z" fill="#EE4B6A"/>
<path d="M399.538 67.6765H387.538V74.2244H399.538V67.6765Z" fill="#CCCCCC"/>
<path d="M392.993 69.1316H388.265V74.2244H392.993V69.1316Z" fill="white"/>
<path d="M398.811 69.1316H394.083V74.2244H398.811V69.1316Z" fill="white"/>
<path d="M393.538 81.3178C391.706 81.3157 389.95 80.5869 388.655 79.2912C387.36 77.9954 386.631 76.2387 386.629 74.4062V74.2243C386.63 73.7903 386.802 73.3742 387.109 73.0674C387.416 72.7605 387.832 72.5879 388.265 72.5874H398.811C399.244 72.5879 399.66 72.7605 399.967 73.0674C400.274 73.3742 400.446 73.7903 400.447 74.2243V74.4062C400.445 76.2386 399.716 77.9954 398.421 79.2912C397.126 80.5869 395.37 81.3157 393.538 81.3178V81.3178Z" fill="#CCCCCC"/>
<path d="M399.088 69.3134H387.988C387.833 69.3134 387.68 69.2738 387.545 69.1983C387.41 69.1229 387.296 69.014 387.214 68.8821C387.133 68.7503 387.086 68.5997 387.079 68.4449C387.072 68.29 387.105 68.1359 387.174 67.9973L389.356 63.632C389.431 63.4806 389.547 63.3533 389.691 63.2644C389.835 63.1756 390 63.1288 390.169 63.1294H396.907C397.076 63.1288 397.241 63.1756 397.385 63.2644C397.529 63.3533 397.645 63.4806 397.72 63.632L399.901 67.9973C399.971 68.1359 400.004 68.29 399.997 68.4449C399.99 68.5997 399.943 68.7503 399.862 68.8821C399.78 69.014 399.666 69.1229 399.531 69.1983C399.396 69.2738 399.243 69.3134 399.088 69.3134H399.088Z" fill="#EE4B6A"/>
<path d="M386.084 98.2331H374.084V104.781H386.084V98.2331Z" fill="#CCCCCC"/>
<path d="M379.538 99.6882H374.811V104.781H379.538V99.6882Z" fill="white"/>
<path d="M385.356 99.6882H380.629V104.781H385.356V99.6882Z" fill="white"/>
<path d="M380.084 111.874C378.252 111.872 376.496 111.143 375.201 109.848C373.905 108.552 373.177 106.795 373.175 104.963V104.781C373.175 104.347 373.348 103.931 373.655 103.624C373.961 103.317 374.377 103.144 374.811 103.144H385.356C385.79 103.144 386.206 103.317 386.513 103.624C386.82 103.931 386.992 104.347 386.993 104.781V104.963C386.991 106.795 386.262 108.552 384.967 109.848C383.672 111.143 381.915 111.872 380.084 111.874V111.874Z" fill="#CCCCCC"/>
<path d="M385.634 99.87H374.533C374.378 99.87 374.226 99.8304 374.091 99.755C373.955 99.6795 373.841 99.5706 373.76 99.4387C373.678 99.3069 373.632 99.1563 373.625 99.0015C373.618 98.8466 373.651 98.6925 373.72 98.5539L375.902 94.1886C375.977 94.0372 376.093 93.9099 376.237 93.821C376.38 93.7322 376.546 93.6854 376.715 93.686H383.452C383.621 93.6854 383.787 93.7322 383.931 93.821C384.074 93.9099 384.19 94.0372 384.265 94.1886L386.447 98.5539C386.516 98.6925 386.549 98.8466 386.542 99.0015C386.535 99.1563 386.489 99.3069 386.407 99.4387C386.326 99.5706 386.212 99.6795 386.077 99.755C385.941 99.8304 385.789 99.87 385.634 99.87H385.634Z" fill="#EE4B6A"/>
<path d="M310.449 41.4851H322.449V34.9373H310.449V41.4851Z" fill="#CCCCCC"/>
<path d="M316.994 41.4851H321.721V36.3924H316.994V41.4851Z" fill="white"/>
<path d="M311.176 41.4851H315.903V36.3924H311.176V41.4851Z" fill="white"/>
<path d="M316.449 48.5786C314.617 48.5766 312.861 47.8477 311.566 46.552C310.27 45.2563 309.542 43.4995 309.54 41.667V41.4852C309.54 41.0512 309.713 40.6351 310.02 40.3282C310.326 40.0213 310.742 39.8487 311.176 39.8482H321.721C322.155 39.8487 322.571 40.0213 322.878 40.3282C323.185 40.6351 323.357 41.0512 323.358 41.4852V41.667C323.356 43.4995 322.627 45.2563 321.332 46.552C320.037 47.8477 318.28 48.5766 316.449 48.5786V48.5786Z" fill="#CCCCCC"/>
<path d="M321.999 36.5742H310.898C310.743 36.5743 310.591 36.5346 310.456 36.4591C310.32 36.3837 310.206 36.2748 310.125 36.1429C310.043 36.0111 309.997 35.8605 309.99 35.7057C309.983 35.5508 310.016 35.3967 310.085 35.2581L312.267 30.8928C312.342 30.7414 312.458 30.6141 312.602 30.5252C312.745 30.4364 312.911 30.3896 313.08 30.3902H319.817C319.986 30.3896 320.152 30.4364 320.296 30.5252C320.439 30.614 320.555 30.7414 320.63 30.8928L322.812 35.2581C322.881 35.3967 322.914 35.5508 322.907 35.7057C322.9 35.8605 322.854 36.0111 322.772 36.1429C322.691 36.2748 322.577 36.3837 322.442 36.4591C322.306 36.5346 322.154 36.5743 321.999 36.5742H321.999Z" fill="#EE4B6A"/>
<path d="M297.722 74.2243H309.722V67.6765H297.722V74.2243Z" fill="#CCCCCC"/>
<path d="M304.267 74.2243H308.994V69.1316H304.267V74.2243Z" fill="white"/>
<path d="M298.449 74.2243H303.176V69.1316H298.449V74.2243Z" fill="white"/>
<path d="M303.722 81.3178C301.89 81.3157 300.134 80.5869 298.839 79.2912C297.543 77.9954 296.815 76.2386 296.813 74.4062V74.2243C296.813 73.7903 296.986 73.3742 297.293 73.0674C297.599 72.7605 298.015 72.5879 298.449 72.5874H308.994C309.428 72.5879 309.844 72.7605 310.151 73.0674C310.458 73.3742 310.63 73.7903 310.631 74.2243V74.4062C310.629 76.2386 309.9 77.9954 308.605 79.2912C307.31 80.5869 305.553 81.3157 303.722 81.3178Z" fill="#CCCCCC"/>
<path d="M309.272 69.3134H298.171C298.016 69.3134 297.864 69.2738 297.729 69.1983C297.593 69.1229 297.479 69.014 297.398 68.8821C297.316 68.7503 297.27 68.5997 297.263 68.4449C297.256 68.29 297.289 68.1359 297.358 67.9973L299.54 63.632C299.615 63.4806 299.731 63.3533 299.875 63.2644C300.018 63.1756 300.184 63.1288 300.353 63.1294H307.09C307.259 63.1288 307.425 63.1756 307.569 63.2644C307.712 63.3533 307.828 63.4806 307.903 63.632L310.085 67.9973C310.154 68.1359 310.187 68.29 310.18 68.4449C310.173 68.5997 310.127 68.7503 310.045 68.8821C309.964 69.014 309.85 69.1229 309.715 69.1983C309.579 69.2738 309.427 69.3134 309.272 69.3134H309.272Z" fill="#EE4B6A"/>
<path d="M311.176 104.781H323.176V98.2331H311.176V104.781Z" fill="#CCCCCC"/>
<path d="M317.721 104.781H322.449V99.6882H317.721V104.781Z" fill="white"/>
<path d="M311.903 104.781H316.63V99.6882H311.903V104.781Z" fill="white"/>
<path d="M317.176 111.874C315.344 111.872 313.588 111.143 312.293 109.848C310.998 108.552 310.269 106.795 310.267 104.963V104.781C310.268 104.347 310.44 103.931 310.747 103.624C311.054 103.317 311.47 103.144 311.903 103.144H322.449C322.882 103.144 323.298 103.317 323.605 103.624C323.912 103.931 324.084 104.347 324.085 104.781V104.963C324.083 106.795 323.354 108.552 322.059 109.848C320.764 111.143 319.008 111.872 317.176 111.874V111.874Z" fill="#CCCCCC"/>
<path d="M322.726 99.87H311.626C311.471 99.87 311.318 99.8304 311.183 99.755C311.047 99.6795 310.934 99.5706 310.852 99.4387C310.771 99.3069 310.724 99.1563 310.717 99.0015C310.71 98.8466 310.743 98.6925 310.812 98.5539L312.994 94.1886C313.069 94.0372 313.185 93.9099 313.329 93.821C313.473 93.7322 313.638 93.6854 313.807 93.686H320.545C320.714 93.6854 320.879 93.7322 321.023 93.821C321.167 93.9099 321.283 94.0372 321.358 94.1886L323.539 98.5539C323.609 98.6925 323.641 98.8466 323.634 99.0015C323.628 99.1563 323.581 99.3069 323.5 99.4387C323.418 99.5706 323.304 99.6795 323.169 99.755C323.034 99.8304 322.881 99.87 322.726 99.87H322.726Z" fill="#EE4B6A"/>
<path d="M354.448 112.056H342.448V118.604H354.448V112.056Z" fill="#CCCCCC"/>
<path d="M347.903 113.511H343.175V118.604H347.903V113.511Z" fill="white"/>
<path d="M353.721 113.511H348.993V118.604H353.721V113.511Z" fill="white"/>
<path d="M343.175 117.331C342.838 117.331 342.515 117.466 342.276 117.704C342.037 117.943 341.903 118.267 341.903 118.604V118.786C341.902 119.647 342.07 120.499 342.399 121.294C342.728 122.089 343.209 122.812 343.817 123.421C344.425 124.029 345.147 124.512 345.942 124.842C346.736 125.171 347.588 125.341 348.448 125.341C349.308 125.341 350.16 125.171 350.954 124.842C351.749 124.512 352.471 124.029 353.079 123.421C353.687 122.812 354.169 122.089 354.497 121.294C354.826 120.499 354.994 119.647 354.993 118.786V118.604C354.993 118.267 354.859 117.943 354.62 117.704C354.382 117.466 354.058 117.331 353.721 117.331H343.175Z" fill="#CCCCCC"/>
<path d="M345.079 107.873C344.978 107.873 344.879 107.901 344.792 107.954C344.706 108.007 344.637 108.084 344.592 108.175L342.41 112.54C342.368 112.623 342.349 112.715 342.353 112.808C342.357 112.901 342.385 112.992 342.434 113.071C342.482 113.15 342.551 113.215 342.632 113.26C342.713 113.306 342.805 113.33 342.898 113.329H353.998C354.091 113.33 354.183 113.306 354.264 113.26C354.345 113.215 354.414 113.15 354.462 113.071C354.511 112.992 354.539 112.901 354.543 112.808C354.548 112.715 354.528 112.623 354.486 112.54L352.305 108.175C352.259 108.084 352.19 108.007 352.104 107.954C352.017 107.901 351.918 107.873 351.817 107.873H345.079Z" fill="#EE4B6A"/>
<path d="M188.36 202.838C188.469 202.838 188.574 202.794 188.651 202.717C188.728 202.64 188.771 202.536 188.771 202.427C188.771 202.318 188.728 202.214 188.651 202.137C188.574 202.06 188.469 202.017 188.36 202.017H184.463V200.375H188.36C188.469 200.375 188.574 200.332 188.651 200.255C188.728 200.178 188.771 200.073 188.771 199.964C188.771 199.856 188.728 199.751 188.651 199.674C188.574 199.597 188.469 199.554 188.36 199.554H155.126C155.017 199.554 154.913 199.597 154.836 199.674C154.759 199.751 154.716 199.856 154.716 199.964C154.716 200.073 154.759 200.178 154.836 200.255C154.913 200.332 155.017 200.375 155.126 200.375H159.024V202.017H155.126C155.017 202.017 154.913 202.06 154.836 202.137C154.759 202.214 154.716 202.318 154.716 202.427C154.716 202.536 154.759 202.64 154.836 202.717C154.913 202.794 155.017 202.838 155.126 202.838H159.024V204.48H155.126C155.017 204.48 154.913 204.523 154.836 204.6C154.759 204.677 154.716 204.781 154.716 204.89C154.716 204.999 154.759 205.103 154.836 205.18C154.913 205.257 155.017 205.3 155.126 205.3H159.024V206.942H155.536C155.319 206.942 155.11 207.029 154.956 207.183C154.802 207.337 154.716 207.545 154.716 207.763C154.716 207.981 154.802 208.19 154.956 208.344C155.11 208.498 155.319 208.584 155.536 208.584H158.856C158.832 208.65 158.819 208.719 158.819 208.789V214.536C158.819 214.699 158.884 214.856 158.999 214.971C159.114 215.087 159.271 215.151 159.434 215.151C159.597 215.151 159.754 215.087 159.869 214.971C159.985 214.856 160.05 214.699 160.05 214.536V208.789C160.049 208.719 160.036 208.65 160.012 208.584H183.475C183.45 208.65 183.438 208.719 183.437 208.789V214.536C183.437 214.699 183.502 214.856 183.617 214.971C183.733 215.087 183.889 215.151 184.052 215.151C184.216 215.151 184.372 215.087 184.487 214.971C184.603 214.856 184.668 214.699 184.668 214.536V208.789C184.667 208.719 184.654 208.65 184.63 208.584H187.95C188.168 208.584 188.377 208.498 188.53 208.344C188.684 208.19 188.771 207.981 188.771 207.763C188.771 207.545 188.684 207.337 188.53 207.183C188.377 207.029 188.168 206.942 187.95 206.942H184.463V205.3H188.36C188.469 205.3 188.574 205.257 188.651 205.18C188.728 205.103 188.771 204.999 188.771 204.89C188.771 204.781 188.728 204.677 188.651 204.6C188.574 204.523 188.469 204.48 188.36 204.48H184.463V202.838H188.36ZM159.844 200.375H183.642V202.017H159.844V200.375ZM183.642 206.942H159.844V205.3H183.642V206.942ZM183.642 204.48H159.844V202.838H183.642V204.48Z" fill="#3F3D56"/>
<path d="M316.576 251.964C316.685 251.964 316.789 251.921 316.866 251.844C316.943 251.767 316.986 251.662 316.986 251.553C316.986 251.445 316.943 251.34 316.866 251.263C316.789 251.186 316.685 251.143 316.576 251.143H312.678V249.501H316.576C316.685 249.501 316.789 249.458 316.866 249.381C316.943 249.304 316.986 249.2 316.986 249.091C316.986 248.982 316.943 248.877 316.866 248.8C316.789 248.724 316.685 248.68 316.576 248.68H283.342C283.233 248.68 283.128 248.724 283.051 248.8C282.975 248.877 282.931 248.982 282.931 249.091C282.931 249.2 282.975 249.304 283.051 249.381C283.128 249.458 283.233 249.501 283.342 249.501H287.24V251.143H283.342C283.233 251.143 283.128 251.186 283.051 251.263C282.975 251.34 282.931 251.445 282.931 251.553C282.931 251.662 282.975 251.767 283.051 251.844C283.128 251.921 283.233 251.964 283.342 251.964H287.24V253.606H283.342C283.233 253.606 283.128 253.649 283.051 253.726C282.975 253.803 282.931 253.907 282.931 254.016C282.931 254.125 282.975 254.23 283.051 254.306C283.128 254.383 283.233 254.427 283.342 254.427H287.24V256.069H283.752C283.534 256.069 283.326 256.155 283.172 256.309C283.018 256.463 282.931 256.672 282.931 256.889C282.931 257.107 283.018 257.316 283.172 257.47C283.326 257.624 283.534 257.71 283.752 257.71H287.072C287.048 257.776 287.035 257.846 287.034 257.916V263.662C287.034 263.743 287.05 263.823 287.081 263.898C287.111 263.973 287.157 264.041 287.214 264.099C287.271 264.156 287.339 264.202 287.414 264.233C287.489 264.264 287.569 264.28 287.65 264.28C287.731 264.28 287.811 264.264 287.886 264.233C287.961 264.202 288.029 264.156 288.086 264.099C288.143 264.041 288.188 263.973 288.219 263.898C288.25 263.823 288.266 263.743 288.265 263.662V257.916C288.265 257.846 288.252 257.776 288.228 257.71H311.69C311.666 257.776 311.653 257.846 311.652 257.916V263.662C311.652 263.825 311.717 263.982 311.833 264.097C311.948 264.213 312.105 264.278 312.268 264.278C312.431 264.278 312.588 264.213 312.703 264.097C312.819 263.982 312.883 263.825 312.883 263.662V257.916C312.883 257.846 312.87 257.776 312.846 257.71H316.166C316.383 257.71 316.592 257.624 316.746 257.47C316.9 257.316 316.986 257.107 316.986 256.889C316.986 256.672 316.9 256.463 316.746 256.309C316.592 256.155 316.383 256.069 316.166 256.069H312.678V254.427H316.576C316.685 254.427 316.789 254.383 316.866 254.306C316.943 254.229 316.986 254.125 316.986 254.016C316.986 253.907 316.943 253.803 316.866 253.726C316.789 253.649 316.685 253.606 316.576 253.606H312.678V251.964L316.576 251.964ZM288.06 249.501H311.858V251.143H288.06V249.501ZM311.858 256.069H288.06V254.427H311.858V256.069ZM311.858 253.606H288.06V251.964H311.858V253.606Z" fill="#3F3D56"/>
<path d="M419.998 198.103C420.107 198.103 420.211 198.059 420.288 197.982C420.365 197.905 420.408 197.801 420.408 197.692C420.408 197.583 420.365 197.479 420.288 197.402C420.211 197.325 420.107 197.282 419.998 197.282H416.1V195.64H419.998C420.107 195.64 420.211 195.597 420.288 195.52C420.365 195.443 420.408 195.338 420.408 195.229C420.408 195.121 420.365 195.016 420.288 194.939C420.211 194.862 420.107 194.819 419.998 194.819H386.764C386.655 194.819 386.55 194.862 386.473 194.939C386.397 195.016 386.353 195.121 386.353 195.229C386.353 195.338 386.397 195.443 386.473 195.52C386.55 195.597 386.655 195.64 386.764 195.64H390.661V197.282H386.764C386.655 197.282 386.55 197.325 386.473 197.402C386.397 197.479 386.353 197.583 386.353 197.692C386.353 197.801 386.397 197.905 386.473 197.982C386.55 198.059 386.655 198.103 386.764 198.103H390.661V199.744H386.764C386.655 199.744 386.55 199.788 386.473 199.865C386.397 199.942 386.353 200.046 386.353 200.155C386.353 200.264 386.397 200.368 386.473 200.445C386.55 200.522 386.655 200.565 386.764 200.565H390.661V202.207H387.174C386.957 202.208 386.749 202.295 386.595 202.448C386.442 202.602 386.356 202.811 386.356 203.028C386.356 203.245 386.442 203.454 386.595 203.608C386.749 203.762 386.957 203.848 387.174 203.849H390.494C390.47 203.915 390.457 203.984 390.456 204.054V209.801C390.456 209.964 390.521 210.121 390.637 210.236C390.752 210.352 390.909 210.416 391.072 210.416C391.235 210.416 391.392 210.352 391.507 210.236C391.622 210.121 391.687 209.964 391.687 209.801V204.054C391.687 203.984 391.674 203.915 391.65 203.849H415.112C415.088 203.915 415.075 203.984 415.074 204.054V209.801C415.074 209.964 415.139 210.121 415.255 210.236C415.37 210.352 415.527 210.416 415.69 210.416C415.853 210.416 416.01 210.352 416.125 210.236C416.24 210.121 416.305 209.964 416.305 209.801V204.054C416.305 203.984 416.292 203.915 416.268 203.849H419.588C419.696 203.849 419.803 203.828 419.903 203.787C420.002 203.746 420.093 203.686 420.17 203.609C420.246 203.533 420.307 203.443 420.348 203.343C420.389 203.243 420.411 203.136 420.411 203.028C420.411 202.92 420.389 202.813 420.348 202.713C420.307 202.614 420.246 202.523 420.17 202.447C420.093 202.371 420.002 202.31 419.903 202.269C419.803 202.228 419.696 202.207 419.588 202.207H416.1V200.565H419.998C420.107 200.565 420.211 200.522 420.288 200.445C420.365 200.368 420.408 200.264 420.408 200.155C420.408 200.046 420.365 199.942 420.288 199.865C420.211 199.788 420.107 199.744 419.998 199.744H416.1V198.103H419.998ZM391.482 195.64H415.28V197.282H391.482V195.64ZM415.28 202.207H391.482V200.565H415.28V202.207ZM415.28 199.744H391.482V198.103H415.28V199.744Z" fill="#3F3D56"/>
<path d="M264.237 301.308C264.237 290.782 255.701 265.803 245.172 265.803C234.642 265.803 226.106 290.782 226.106 301.308C226.109 306.365 228.119 311.213 231.694 314.787C235.27 318.362 240.117 320.37 245.172 320.37C250.226 320.37 255.074 318.362 258.649 314.787C262.224 311.213 264.234 306.365 264.237 301.308V301.308Z" fill="#F2F2F2"/>
<path d="M245.172 343.544C245.114 343.543 245.058 343.521 245.018 343.48C244.977 343.439 244.954 343.383 244.954 343.325V298.801C244.954 298.773 244.959 298.744 244.97 298.717C244.981 298.691 244.997 298.667 245.017 298.646C245.037 298.626 245.061 298.61 245.088 298.599C245.114 298.588 245.143 298.582 245.172 298.582C245.2 298.582 245.229 298.588 245.255 298.599C245.282 298.61 245.306 298.626 245.326 298.646C245.347 298.667 245.363 298.691 245.373 298.717C245.384 298.744 245.39 298.773 245.39 298.801V343.325C245.39 343.383 245.367 343.439 245.326 343.48C245.285 343.521 245.229 343.543 245.172 343.544V343.544Z" fill="#CCCCCC"/>
<path d="M245.172 307.12C245.141 307.12 245.11 307.113 245.081 307.1C245.053 307.087 245.027 307.068 245.007 307.045L234.042 294.395C234.004 294.351 233.986 294.294 233.99 294.237C233.994 294.179 234.021 294.126 234.065 294.088C234.108 294.05 234.165 294.031 234.222 294.035C234.28 294.039 234.333 294.065 234.371 294.109L245.336 306.759C245.364 306.791 245.382 306.829 245.387 306.871C245.393 306.912 245.387 306.954 245.37 306.992C245.353 307.03 245.325 307.063 245.29 307.085C245.254 307.108 245.214 307.12 245.172 307.12V307.12Z" fill="#CCCCCC"/>
<path d="M245.172 314.42C245.129 314.42 245.086 314.408 245.051 314.384C245.015 314.36 244.987 314.326 244.97 314.286C244.954 314.246 244.949 314.202 244.958 314.16C244.966 314.118 244.987 314.079 245.018 314.048L251.248 307.815C251.289 307.774 251.344 307.751 251.402 307.751C251.46 307.751 251.515 307.774 251.556 307.815C251.597 307.856 251.62 307.912 251.62 307.969C251.62 308.027 251.597 308.083 251.556 308.124L245.326 314.357C245.306 314.377 245.282 314.393 245.255 314.404C245.229 314.415 245.2 314.421 245.172 314.42V314.42Z" fill="#CCCCCC"/>
<path d="M82.3916 94.7413C82.3916 84.2148 73.8557 59.2358 63.3261 59.2358C52.7964 59.2358 44.2605 84.2148 44.2605 94.7413C44.2636 99.7977 46.2736 104.646 49.8488 108.22C53.4239 111.795 58.2716 113.803 63.3261 113.803C68.3805 113.803 73.2282 111.795 76.8033 108.22C80.3785 104.646 82.3885 99.7977 82.3916 94.7413V94.7413Z" fill="#3F3D56"/>
<path d="M63.3261 136.976C63.2683 136.976 63.2128 136.953 63.1719 136.913C63.131 136.872 63.1081 136.816 63.1081 136.758V92.2341C63.1084 92.1765 63.1315 92.1214 63.1724 92.0807C63.2132 92.0401 63.2685 92.0173 63.3261 92.0173C63.3837 92.0173 63.439 92.0401 63.4798 92.0807C63.5207 92.1214 63.5438 92.1765 63.5441 92.2341V136.758C63.5441 136.787 63.5385 136.815 63.5275 136.842C63.5166 136.868 63.5005 136.892 63.4803 136.912C63.46 136.933 63.436 136.949 63.4095 136.96C63.3831 136.971 63.3547 136.976 63.3261 136.976Z" fill="#CCCCCC"/>
<path d="M63.3262 100.553C63.2949 100.553 63.264 100.546 63.2356 100.533C63.2071 100.52 63.1818 100.501 63.1613 100.478L52.1963 87.8276C52.1586 87.7838 52.1398 87.7269 52.144 87.6693C52.1482 87.6117 52.175 87.5582 52.2186 87.5203C52.2622 87.4825 52.319 87.4635 52.3766 87.4675C52.4342 87.4715 52.4879 87.4982 52.5258 87.5417L63.4908 100.192C63.5182 100.223 63.5359 100.262 63.5419 100.304C63.5478 100.345 63.5418 100.387 63.5244 100.425C63.5071 100.463 63.4792 100.496 63.444 100.518C63.4089 100.541 63.368 100.553 63.3262 100.553V100.553Z" fill="#CCCCCC"/>
<path d="M63.3261 107.853C63.2829 107.853 63.2408 107.841 63.2049 107.817C63.1691 107.793 63.1412 107.759 63.1247 107.719C63.1082 107.679 63.1038 107.635 63.1122 107.593C63.1207 107.55 63.1414 107.512 63.1719 107.481L69.4024 101.248C69.4227 101.228 69.4467 101.212 69.4732 101.201C69.4996 101.19 69.528 101.184 69.5566 101.184C69.5852 101.184 69.6135 101.19 69.64 101.201C69.6664 101.212 69.6905 101.228 69.7107 101.248C69.731 101.268 69.747 101.292 69.758 101.319C69.7689 101.345 69.7746 101.374 69.7746 101.402C69.7746 101.431 69.7689 101.459 69.758 101.486C69.747 101.512 69.731 101.536 69.7107 101.556L63.4802 107.789C63.46 107.81 63.436 107.826 63.4095 107.837C63.3831 107.848 63.3547 107.853 63.3261 107.853Z" fill="#CCCCCC"/>
<path d="M42.6762 136.687C42.6762 134.576 43.5148 132.55 45.0075 131.057C46.5001 129.564 48.5246 128.725 50.6356 128.725C52.7466 128.725 54.7711 129.564 56.2638 131.057C57.7564 132.55 58.595 134.576 58.595 136.687" fill="#F2F2F2"/>
<path d="M50.6356 136.687C50.5785 136.687 50.5238 136.665 50.4835 136.624C50.4432 136.584 50.4205 136.529 50.4205 136.472V132.276C50.4205 132.219 50.4431 132.164 50.4835 132.124C50.5238 132.083 50.5785 132.061 50.6356 132.061C50.6926 132.061 50.7474 132.083 50.7877 132.124C50.8281 132.164 50.8507 132.219 50.8507 132.276V136.472C50.8507 136.529 50.828 136.584 50.7877 136.624C50.7474 136.665 50.6926 136.687 50.6356 136.687Z" fill="#CCCCCC"/>
<path d="M50.6355 135.245C50.5841 135.245 50.5344 135.227 50.4954 135.193L47.9141 132.977C47.8926 132.959 47.875 132.936 47.8623 132.911C47.8495 132.886 47.8418 132.858 47.8397 132.83C47.8375 132.802 47.8409 132.774 47.8497 132.747C47.8585 132.72 47.8725 132.695 47.8909 132.674C47.9093 132.652 47.9318 132.635 47.957 132.622C47.9822 132.609 48.0097 132.601 48.0378 132.599C48.066 132.597 48.0943 132.6 48.1212 132.609C48.148 132.618 48.1728 132.632 48.1943 132.65L50.7757 134.867C50.8091 134.896 50.8328 134.934 50.8438 134.976C50.8549 135.019 50.8526 135.064 50.8373 135.105C50.822 135.146 50.7945 135.182 50.7584 135.207C50.7223 135.232 50.6794 135.245 50.6354 135.245H50.6355Z" fill="#CCCCCC"/>
<path d="M67.1997 136.687C67.1997 134.576 68.0383 132.55 69.531 131.057C71.0237 129.564 73.0482 128.725 75.1591 128.725C77.2701 128.725 79.2946 129.564 80.7873 131.057C82.2799 132.55 83.1185 134.576 83.1185 136.687" fill="#F2F2F2"/>
<path d="M75.1591 136.687C75.1021 136.687 75.0474 136.665 75.007 136.624C74.9667 136.584 74.944 136.529 74.944 136.472V132.276C74.944 132.219 74.9667 132.164 75.007 132.124C75.0474 132.083 75.1021 132.061 75.1591 132.061C75.2162 132.061 75.2709 132.083 75.3113 132.124C75.3516 132.164 75.3743 132.219 75.3743 132.276V136.472C75.3743 136.529 75.3516 136.584 75.3112 136.624C75.2709 136.665 75.2162 136.687 75.1591 136.687V136.687Z" fill="#CCCCCC"/>
<path d="M75.159 135.245C75.1076 135.245 75.0579 135.227 75.019 135.193L72.4376 132.977C72.3946 132.94 72.3682 132.887 72.364 132.83C72.3598 132.774 72.3783 132.717 72.4153 132.674C72.4523 132.631 72.505 132.604 72.5616 132.6C72.6183 132.595 72.6745 132.614 72.7178 132.65L75.2993 134.867C75.3326 134.895 75.3564 134.934 75.3674 134.976C75.3784 135.019 75.3761 135.064 75.3609 135.105C75.3456 135.146 75.3181 135.182 75.282 135.207C75.2459 135.232 75.203 135.245 75.159 135.245V135.245Z" fill="#CCCCCC"/>
<path d="M482.942 300.717C482.942 290.19 474.406 265.211 463.876 265.211C453.347 265.211 444.811 290.19 444.811 300.717C444.814 305.773 446.824 310.621 450.399 314.196C453.974 317.77 458.822 319.778 463.876 319.778C468.931 319.778 473.779 317.77 477.354 314.196C480.929 310.621 482.939 305.773 482.942 300.717V300.717Z" fill="#EE4B6A"/>
<path d="M463.876 342.952C463.819 342.952 463.763 342.929 463.722 342.888C463.681 342.847 463.658 342.791 463.658 342.733V298.209C463.658 298.181 463.664 298.152 463.675 298.126C463.686 298.099 463.702 298.075 463.722 298.054C463.742 298.034 463.766 298.018 463.793 298.007C463.819 297.996 463.848 297.99 463.876 297.99C463.905 297.99 463.934 297.996 463.96 298.007C463.987 298.018 464.011 298.034 464.031 298.054C464.051 298.075 464.067 298.099 464.078 298.126C464.089 298.152 464.095 298.181 464.094 298.209V342.734C464.094 342.791 464.072 342.847 464.031 342.888C463.99 342.929 463.934 342.952 463.876 342.952V342.952Z" fill="#CCCCCC"/>
<path d="M463.877 306.528C463.845 306.528 463.814 306.521 463.786 306.508C463.758 306.496 463.732 306.477 463.712 306.453L452.747 293.803C452.709 293.759 452.691 293.702 452.695 293.645C452.699 293.587 452.726 293.534 452.769 293.496C452.813 293.458 452.87 293.439 452.927 293.443C452.985 293.447 453.038 293.474 453.076 293.517L464.041 306.167C464.069 306.199 464.086 306.237 464.092 306.279C464.098 306.32 464.092 306.362 464.075 306.4C464.057 306.439 464.03 306.471 463.994 306.493C463.959 306.516 463.918 306.528 463.877 306.528V306.528Z" fill="#CCCCCC"/>
<path d="M463.876 313.829C463.833 313.829 463.791 313.816 463.755 313.792C463.719 313.768 463.692 313.734 463.675 313.694C463.659 313.654 463.654 313.61 463.663 313.568C463.671 313.526 463.692 313.487 463.722 313.456L469.953 307.223C469.973 307.203 469.997 307.187 470.024 307.176C470.05 307.165 470.078 307.159 470.107 307.159C470.136 307.159 470.164 307.165 470.19 307.176C470.217 307.187 470.241 307.203 470.261 307.223C470.281 307.244 470.297 307.268 470.308 307.294C470.319 307.32 470.325 307.349 470.325 307.377C470.325 307.406 470.319 307.434 470.308 307.461C470.297 307.487 470.281 307.511 470.261 307.532L464.031 313.765C464.01 313.785 463.986 313.801 463.96 313.812C463.933 313.823 463.905 313.829 463.876 313.829V313.829Z" fill="#CCCCCC"/>
<path d="M183.664 304.054H179.969C179.693 304.053 179.429 303.944 179.235 303.749C179.04 303.554 178.93 303.29 178.93 303.014V298.163C178.93 297.887 179.04 297.623 179.235 297.428C179.429 297.233 179.693 297.123 179.969 297.123H183.664C183.939 297.123 184.204 297.233 184.398 297.428C184.593 297.623 184.703 297.887 184.703 298.163V303.014C184.703 303.29 184.593 303.554 184.398 303.749C184.204 303.944 183.939 304.053 183.664 304.054V304.054Z" fill="#3F3D56"/>
<path d="M214.839 343.558H195.903C195.383 343.557 194.884 343.35 194.516 342.982C194.148 342.614 193.941 342.115 193.94 341.594V304.862C193.941 304.342 194.148 303.843 194.516 303.474C194.884 303.106 195.383 302.899 195.903 302.899H214.839C215.36 302.899 215.859 303.106 216.227 303.474C216.595 303.843 216.802 304.342 216.802 304.862V341.594C216.802 342.115 216.595 342.614 216.227 342.982C215.859 343.35 215.36 343.557 214.839 343.558Z" fill="#3F3D56"/>
<path d="M203.524 343.558H170.732C170.211 343.557 169.712 343.35 169.344 342.982C168.976 342.614 168.769 342.115 168.769 341.594V304.862C168.769 304.342 168.976 303.843 169.344 303.474C169.712 303.106 170.211 302.899 170.732 302.899H203.524C204.044 302.899 204.543 303.106 204.911 303.474C205.279 303.843 205.486 304.342 205.487 304.862V341.594C205.486 342.115 205.279 342.614 204.911 342.982C204.543 343.35 204.044 343.557 203.524 343.558Z" fill="#EE4B6A"/>
<path d="M180.2 304.054H176.505C176.23 304.053 175.965 303.944 175.771 303.749C175.576 303.554 175.466 303.29 175.466 303.014V298.163C175.466 297.887 175.576 297.623 175.771 297.428C175.965 297.233 176.23 297.123 176.505 297.123H180.2C180.475 297.123 180.74 297.233 180.934 297.428C181.129 297.623 181.239 297.887 181.239 298.163V303.014C181.239 303.29 181.129 303.554 180.934 303.749C180.74 303.944 180.475 304.053 180.2 304.054V304.054Z" fill="#EE4B6A"/>
<path d="M185.049 321.034H180.662C180.509 321.034 180.362 320.973 180.254 320.864C180.146 320.756 180.085 320.609 180.084 320.456V313.757C180.085 313.603 180.146 313.457 180.254 313.348C180.362 313.24 180.509 313.179 180.662 313.179H185.049C185.203 313.179 185.349 313.24 185.457 313.348C185.566 313.457 185.627 313.603 185.627 313.757V320.456C185.627 320.609 185.566 320.756 185.457 320.864C185.349 320.973 185.203 321.034 185.049 321.034V321.034Z" fill="white"/>
<path d="M193.594 321.034H189.206C189.053 321.034 188.906 320.973 188.798 320.864C188.69 320.756 188.629 320.609 188.629 320.456V313.757C188.629 313.603 188.69 313.457 188.798 313.348C188.906 313.24 189.053 313.179 189.206 313.179H193.594C193.747 313.179 193.894 313.24 194.002 313.348C194.11 313.457 194.171 313.603 194.171 313.757V320.456C194.171 320.609 194.11 320.756 194.002 320.864C193.894 320.973 193.747 321.034 193.594 321.034V321.034Z" fill="white"/>
<path d="M185.049 333.278H180.662C180.509 333.277 180.362 333.217 180.254 333.108C180.146 333 180.085 332.853 180.084 332.7V326.001C180.085 325.847 180.146 325.701 180.254 325.592C180.362 325.484 180.509 325.423 180.662 325.423H185.049C185.203 325.423 185.349 325.484 185.457 325.592C185.566 325.701 185.627 325.847 185.627 326.001V332.7C185.627 332.853 185.566 333 185.457 333.108C185.349 333.217 185.203 333.277 185.049 333.278V333.278Z" fill="white"/>
<path d="M193.594 333.278H189.206C189.053 333.277 188.906 333.217 188.798 333.108C188.69 333 188.629 332.853 188.629 332.7V326.001C188.629 325.847 188.69 325.701 188.798 325.592C188.906 325.484 189.053 325.423 189.206 325.423H193.594C193.747 325.423 193.894 325.484 194.002 325.592C194.11 325.701 194.171 325.847 194.171 326.001V332.7C194.171 332.853 194.11 333 194.002 333.108C193.894 333.217 193.747 333.277 193.594 333.278V333.278Z" fill="white"/>
<path d="M52.2271 188.913H47.8692C47.5442 188.913 47.2327 188.783 47.0029 188.554C46.7731 188.324 46.6439 188.012 46.6435 187.687V177.605C46.6439 177.28 46.7731 176.968 47.0029 176.739C47.2326 176.509 47.5442 176.379 47.8692 176.379H52.2271C52.5521 176.379 52.8636 176.509 53.0934 176.739C53.3232 176.968 53.4525 177.28 53.4528 177.605V187.687C53.4525 188.012 53.3232 188.324 53.0934 188.554C52.8636 188.783 52.5521 188.913 52.2271 188.913V188.913Z" fill="#3F3D56"/>
<path d="M69.3866 282.918H47.052C46.4382 282.917 45.8498 282.673 45.4157 282.239C44.9817 281.805 44.7375 281.216 44.7368 280.602V190.412C44.7375 189.798 44.9817 189.209 45.4157 188.775C45.8498 188.341 46.4382 188.096 47.052 188.096H69.3866C70.0004 188.096 70.5889 188.341 71.0229 188.775C71.457 189.209 71.7011 189.798 71.7018 190.412V280.602C71.7011 281.216 71.457 281.805 71.0229 282.239C70.5889 282.673 70.0004 282.917 69.3866 282.918V282.918Z" fill="#3F3D56"/>
<path d="M56.0404 282.918H33.7058C33.0919 282.917 32.5035 282.673 32.0694 282.239C31.6354 281.805 31.3913 281.216 31.3906 280.602V190.412C31.3913 189.798 31.6354 189.209 32.0694 188.775C32.5035 188.341 33.0919 188.096 33.7058 188.096H56.0404C56.6542 188.096 57.2426 188.341 57.6767 188.775C58.1107 189.209 58.3548 189.798 58.3555 190.412V280.602C58.3548 281.216 58.1107 281.805 57.6767 282.239C57.2426 282.673 56.6542 282.917 56.0404 282.918V282.918Z" fill="#EE4B6A"/>
<path d="M48.1415 188.913H43.7835C43.4586 188.913 43.147 188.783 42.9173 188.554C42.6875 188.324 42.5582 188.012 42.5579 187.687V177.605C42.5582 177.28 42.6875 176.968 42.9173 176.739C43.147 176.509 43.4586 176.379 43.7835 176.379H48.1415C48.4665 176.379 48.778 176.509 49.0078 176.739C49.2376 176.968 49.3668 177.28 49.3672 177.605V187.687C49.3668 188.012 49.2376 188.324 49.0078 188.554C48.778 188.783 48.4665 188.913 48.1415 188.913Z" fill="#EE4B6A"/>
<path d="M42.4217 208.531H37.2466C37.0661 208.531 36.893 208.459 36.7653 208.332C36.6377 208.204 36.5659 208.031 36.5657 207.85V199.948C36.5659 199.768 36.6377 199.595 36.7653 199.467C36.893 199.339 37.0661 199.267 37.2466 199.267H42.4217C42.6022 199.267 42.7753 199.339 42.903 199.467C43.0306 199.595 43.1024 199.768 43.1026 199.948V207.85C43.1024 208.031 43.0306 208.204 42.903 208.332C42.7753 208.459 42.6022 208.531 42.4217 208.531V208.531Z" fill="white"/>
<path d="M52.4995 208.531H47.3244C47.1439 208.531 46.9708 208.459 46.8431 208.332C46.7155 208.204 46.6437 208.031 46.6435 207.85V199.948C46.6437 199.768 46.7155 199.595 46.8431 199.467C46.9708 199.339 47.1439 199.267 47.3244 199.267H52.4995C52.68 199.267 52.8531 199.339 52.9808 199.467C53.1084 199.595 53.1802 199.768 53.1804 199.948V207.85C53.1802 208.031 53.1084 208.204 52.9808 208.332C52.8531 208.459 52.68 208.531 52.4995 208.531V208.531Z" fill="white"/>
<path d="M42.4217 222.973H37.2466C37.0661 222.973 36.893 222.901 36.7653 222.773C36.6377 222.645 36.5659 222.472 36.5657 222.292V214.39C36.5659 214.209 36.6377 214.036 36.7653 213.908C36.893 213.781 37.0661 213.709 37.2466 213.709H42.4217C42.6022 213.709 42.7753 213.781 42.903 213.908C43.0306 214.036 43.1024 214.209 43.1026 214.39V222.292C43.1024 222.472 43.0306 222.645 42.903 222.773C42.7753 222.901 42.6022 222.973 42.4217 222.973V222.973Z" fill="white"/>
<path d="M52.4995 222.973H47.3244C47.1439 222.973 46.9708 222.901 46.8431 222.773C46.7155 222.645 46.6437 222.472 46.6435 222.292V214.39C46.6437 214.209 46.7155 214.036 46.8431 213.908C46.9708 213.781 47.1439 213.709 47.3244 213.709H52.4995C52.68 213.709 52.8531 213.781 52.9808 213.908C53.1084 214.036 53.1802 214.209 53.1804 214.39V222.292C53.1802 222.472 53.1084 222.645 52.9808 222.773C52.8531 222.901 52.68 222.973 52.4995 222.973V222.973Z" fill="white"/>
<path d="M42.4217 237.414H37.2466C37.0661 237.414 36.893 237.342 36.7653 237.214C36.6377 237.087 36.5659 236.914 36.5657 236.733V228.831C36.5659 228.65 36.6377 228.477 36.7653 228.35C36.893 228.222 37.0661 228.15 37.2466 228.15H42.4217C42.6022 228.15 42.7753 228.222 42.903 228.35C43.0306 228.477 43.1024 228.65 43.1026 228.831V236.733C43.1024 236.914 43.0306 237.087 42.903 237.214C42.7753 237.342 42.6022 237.414 42.4217 237.414V237.414Z" fill="white"/>
<path d="M52.4995 237.414H47.3244C47.1439 237.414 46.9708 237.342 46.8431 237.214C46.7155 237.087 46.6437 236.914 46.6435 236.733V228.831C46.6437 228.65 46.7155 228.477 46.8431 228.35C46.9708 228.222 47.1439 228.15 47.3244 228.15H52.4995C52.68 228.15 52.8531 228.222 52.9808 228.35C53.1084 228.477 53.1802 228.65 53.1804 228.831V236.733C53.1802 236.914 53.1084 237.087 52.9808 237.214C52.8531 237.342 52.68 237.414 52.4995 237.414Z" fill="white"/>
<path d="M42.4217 251.856H37.2466C37.0661 251.855 36.893 251.783 36.7653 251.656C36.6377 251.528 36.5659 251.355 36.5657 251.174V243.272C36.5659 243.092 36.6377 242.919 36.7653 242.791C36.893 242.663 37.0661 242.591 37.2466 242.591H42.4217C42.6022 242.591 42.7753 242.663 42.903 242.791C43.0306 242.919 43.1024 243.092 43.1026 243.272V251.174C43.1024 251.355 43.0306 251.528 42.903 251.656C42.7753 251.783 42.6022 251.855 42.4217 251.856V251.856Z" fill="white"/>
<path d="M52.4995 251.856H47.3244C47.1439 251.855 46.9708 251.783 46.8431 251.656C46.7155 251.528 46.6437 251.355 46.6435 251.174V243.272C46.6437 243.092 46.7155 242.919 46.8431 242.791C46.9708 242.663 47.1439 242.591 47.3244 242.591H52.4995C52.68 242.591 52.8531 242.663 52.9808 242.791C53.1084 242.919 53.1802 243.092 53.1804 243.272V251.174C53.1802 251.355 53.1084 251.528 52.9808 251.656C52.8531 251.783 52.68 251.855 52.4995 251.856Z" fill="white"/>
<path d="M42.4217 266.297H37.2466C37.0661 266.297 36.893 266.225 36.7653 266.097C36.6377 265.969 36.5659 265.796 36.5657 265.616V257.714C36.5659 257.533 36.6377 257.36 36.7653 257.232C36.893 257.105 37.0661 257.033 37.2466 257.033H42.4217C42.6022 257.033 42.7753 257.105 42.903 257.232C43.0306 257.36 43.1024 257.533 43.1026 257.714V265.616C43.1024 265.796 43.0306 265.969 42.903 266.097C42.7753 266.225 42.6022 266.297 42.4217 266.297Z" fill="white"/>
<path d="M52.4995 266.297H47.3244C47.1439 266.297 46.9708 266.225 46.8431 266.097C46.7155 265.969 46.6437 265.796 46.6435 265.616V257.714C46.6437 257.533 46.7155 257.36 46.8431 257.232C46.9708 257.105 47.1439 257.033 47.3244 257.033H52.4995C52.68 257.033 52.8531 257.105 52.9808 257.232C53.1084 257.36 53.1802 257.533 53.1804 257.714V265.616C53.1802 265.796 53.1084 265.969 52.9808 266.097C52.8531 266.225 52.68 266.297 52.4995 266.297Z" fill="white"/>
<path d="M398.847 304.178H395.152C394.876 304.177 394.612 304.068 394.417 303.873C394.222 303.678 394.113 303.414 394.113 303.138V298.287C394.113 298.011 394.222 297.747 394.417 297.552C394.612 297.357 394.876 297.247 395.152 297.247H398.847C399.122 297.247 399.386 297.357 399.581 297.552C399.776 297.747 399.886 298.011 399.886 298.287V303.138C399.886 303.414 399.776 303.678 399.581 303.873C399.386 304.068 399.122 304.177 398.847 304.178V304.178Z" fill="#3F3D56"/>
<path d="M430.022 343.682H411.086C410.565 343.681 410.067 343.474 409.699 343.106C409.331 342.738 409.124 342.239 409.123 341.718V304.986C409.124 304.466 409.331 303.967 409.699 303.598C410.067 303.23 410.565 303.023 411.086 303.023H430.022C430.543 303.023 431.042 303.23 431.41 303.598C431.778 303.967 431.985 304.466 431.985 304.986V341.718C431.985 342.239 431.778 342.738 431.41 343.106C431.042 343.474 430.543 343.681 430.022 343.682V343.682Z" fill="#3F3D56"/>
<path d="M418.707 343.682H385.915C385.394 343.681 384.895 343.474 384.527 343.106C384.159 342.738 383.952 342.239 383.952 341.718V304.986C383.952 304.466 384.159 303.967 384.527 303.598C384.895 303.23 385.394 303.023 385.915 303.023H418.707C419.227 303.023 419.726 303.23 420.094 303.598C420.462 303.967 420.669 304.466 420.67 304.986V341.718C420.669 342.239 420.462 342.738 420.094 343.106C419.726 343.474 419.227 343.681 418.707 343.682V343.682Z" fill="#EE4B6A"/>
<path d="M395.383 304.178H391.688C391.412 304.177 391.148 304.068 390.953 303.873C390.758 303.678 390.649 303.414 390.649 303.138V298.287C390.649 298.011 390.758 297.747 390.953 297.552C391.148 297.357 391.412 297.247 391.688 297.247H395.383C395.658 297.247 395.922 297.357 396.117 297.552C396.312 297.747 396.422 298.011 396.422 298.287V303.138C396.422 303.414 396.312 303.678 396.117 303.873C395.922 304.068 395.658 304.177 395.383 304.178V304.178Z" fill="#EE4B6A"/>
<path d="M400.232 321.158H395.844C395.691 321.157 395.545 321.097 395.436 320.988C395.328 320.88 395.267 320.733 395.267 320.58V313.881C395.267 313.727 395.328 313.581 395.436 313.472C395.545 313.364 395.691 313.303 395.844 313.303H400.232C400.385 313.303 400.532 313.364 400.64 313.472C400.748 313.581 400.809 313.727 400.809 313.881V320.58C400.809 320.733 400.748 320.88 400.64 320.988C400.532 321.097 400.385 321.157 400.232 321.158V321.158Z" fill="white"/>
<path d="M408.777 321.158H404.389C404.236 321.157 404.089 321.097 403.981 320.988C403.873 320.88 403.812 320.733 403.812 320.58V313.881C403.812 313.727 403.873 313.581 403.981 313.472C404.089 313.364 404.236 313.303 404.389 313.303H408.777C408.93 313.303 409.076 313.364 409.185 313.472C409.293 313.581 409.354 313.727 409.354 313.881V320.58C409.354 320.733 409.293 320.88 409.185 320.988C409.076 321.097 408.93 321.157 408.777 321.158Z" fill="white"/>
<path d="M400.232 333.402H395.844C395.691 333.401 395.545 333.341 395.436 333.232C395.328 333.124 395.267 332.977 395.267 332.824V326.125C395.267 325.971 395.328 325.825 395.436 325.716C395.545 325.608 395.691 325.547 395.844 325.547H400.232C400.385 325.547 400.532 325.608 400.64 325.716C400.748 325.825 400.809 325.971 400.809 326.125V332.824C400.809 332.977 400.748 333.124 400.64 333.232C400.532 333.341 400.385 333.401 400.232 333.402V333.402Z" fill="white"/>
<path d="M408.777 333.402H404.389C404.236 333.401 404.089 333.341 403.981 333.232C403.873 333.124 403.812 332.977 403.812 332.824V326.125C403.812 325.971 403.873 325.825 403.981 325.716C404.089 325.608 404.236 325.547 404.389 325.547H408.777C408.93 325.547 409.076 325.608 409.185 325.716C409.293 325.825 409.354 325.971 409.354 326.125V332.824C409.354 332.977 409.293 333.124 409.185 333.232C409.076 333.341 408.93 333.401 408.777 333.402V333.402Z" fill="white"/>
</g>
<defs>
<clipPath id="clip0_12_180">
<rect width="516" height="417" fill="white"/>
</clipPath>
</defs>
</svg>
