<svg width="350" height="213" viewBox="0 0 350 213" fill="none" xmlns="http://www.w3.org/2000/svg">
<g clip-path="url(#clip0_11_2)">
<path d="M53.9491 184.423C56.8151 194.951 66.6316 201.471 66.6316 201.471C66.6316 201.471 71.8015 190.922 68.9356 180.395C66.0696 169.867 56.2531 163.347 56.2531 163.347C56.2531 163.347 51.0831 173.895 53.9491 184.423Z" fill="#3F3D56"/>
<path d="M58.1604 182.161C66.0247 189.768 66.9852 201.463 66.9852 201.463C66.9852 201.463 55.1953 200.823 47.3311 193.215C39.4669 185.608 38.5063 173.914 38.5063 173.914C38.5063 173.914 50.2962 174.553 58.1604 182.161Z" fill="#3792F9"/>
<path d="M314.892 211.484H37.9692V212.333H314.892V211.484Z" fill="#2F2E41"/>
<path d="M70.5128 211.909H59.4017V200.867H70.5128V211.909ZM60.2564 211.059H69.6581V201.717H60.2564V211.059Z" fill="#3F3D56"/>
<path d="M94.1653 8.41968H0V101.994H94.1653V8.41968Z" fill="#3F3D56"/>
<path d="M94.1653 31.7004V33.8481C92.7302 32.9032 91.5717 31.5984 90.8072 30.0657C89.5535 27.5178 89.5932 24.5809 89.6329 21.7399C89.6783 18.3633 89.7237 15.1784 87.5681 13.104C85.1969 10.8267 81.4019 11.148 77.7318 11.458C77.3007 11.4918 76.8695 11.5313 76.4441 11.5651C72.7626 11.8413 68.6613 10.9169 66.6702 8.41968H69.1548C70.9757 9.63725 73.761 10.0657 76.3193 9.87399C76.7334 9.84581 77.1589 9.80635 77.5843 9.77253C81.4474 9.44561 85.8266 9.07355 88.748 11.8864C91.4368 14.4681 91.3857 18.1773 91.3347 21.7624C91.295 24.4062 91.261 27.1345 92.3388 29.3216C92.7859 30.2252 93.4064 31.0332 94.1653 31.7004Z" fill="#3792F9"/>
<path d="M94.1653 46.5539V49.068C93.7521 48.5315 93.2887 48.0351 92.7812 47.5854C89.8542 45.0206 85.6507 44.4569 81.5892 43.9045C81.0616 43.8368 80.5454 43.7636 80.0292 43.6903C73.4433 42.7489 69.359 40.4998 67.5495 36.8301C66.2958 34.2822 66.3355 31.3453 66.3752 28.5043C66.4206 25.1277 66.466 21.9428 64.3104 19.8684C61.9392 17.591 58.1443 17.9123 54.4741 18.2224C54.043 18.2562 53.6118 18.2957 53.1864 18.3295C48.4554 18.6846 43.0267 17.0555 42.2836 12.6531C42.0284 11.1423 42.4084 9.75564 42.97 8.41968H44.8307C44.2066 9.76128 43.7415 11.0578 43.9627 12.3712C44.5243 15.7308 49.0738 16.9372 53.0616 16.6384C53.4757 16.6102 53.9012 16.5707 54.3266 16.5369C58.1897 16.21 62.5689 15.8379 65.4903 18.6508C68.1791 21.2325 68.128 24.9417 68.077 28.5268C68.0373 31.1706 68.0033 33.8989 69.0811 36.086C70.624 39.2202 74.2828 41.1593 80.2731 42.0161C80.7836 42.0894 81.2999 42.1627 81.816 42.2303C86.1272 42.8109 90.5916 43.4141 93.91 46.3171C93.9951 46.3904 94.0802 46.4693 94.1653 46.5539Z" fill="#3792F9"/>
<path d="M94.1653 88.9327V92.4051C92.1175 90.2405 90.4044 87.2698 89.094 83.555C88.8161 82.7659 88.5494 81.9598 88.2828 81.1537C86.8136 76.7399 85.2934 72.1796 81.6742 69.2653C77.8055 66.1537 72.2634 65.466 66.9028 64.8008C66.2164 64.7163 65.53 64.6317 64.8493 64.5415C56.1588 63.3972 50.7755 60.6745 48.3874 56.2213C46.731 53.1266 46.782 49.564 46.8331 46.1198C46.8955 42.0274 46.9579 38.1604 44.1102 35.6463C40.9846 32.8842 35.9757 33.2731 31.137 33.6508C30.564 33.6959 29.9968 33.741 29.4409 33.7805C23.1953 34.2089 16.0308 32.2359 15.0551 26.8977C14.5729 24.2822 15.8039 21.9653 16.9895 19.7218C17.6702 18.4366 18.3168 17.2134 18.6459 15.9563C19.3379 13.3689 18.4814 10.4546 16.581 8.41968H19.3606C20.1627 9.57729 20.7085 10.8909 20.9617 12.2737C21.215 13.6564 21.17 15.0769 20.8298 16.4411C20.4384 17.9123 19.7123 19.2878 19.0089 20.6181C17.9254 22.6587 16.91 24.5865 17.2674 26.5595C18.0162 30.6294 24.0122 32.095 29.2706 31.7342C29.8209 31.6948 30.3825 31.6497 30.9441 31.6102C36.0381 31.21 41.8128 30.7647 45.6702 34.1751C49.2155 37.3036 49.1475 41.8019 49.0794 46.148C49.034 49.3555 48.9829 52.6644 50.4011 55.3194C52.4376 59.1131 57.2707 61.4693 65.1726 62.5122C65.842 62.6024 66.5227 62.6869 67.2034 62.7715C72.8987 63.4761 78.7812 64.2032 83.1548 67.7264C87.2561 71.0297 88.8728 75.8718 90.427 80.5561C90.6937 81.3566 90.9603 82.1458 91.2326 82.9293C91.9538 85.0444 92.9391 87.0613 94.1653 88.9327V88.9327Z" fill="#3792F9"/>
<path d="M0 46.2044C2.58671 49.316 8.07212 50.466 12.9903 50.1278C13.5462 50.0883 14.1135 50.0432 14.6864 49.9981C19.5251 49.6204 24.534 49.2315 27.6596 51.9936C30.5073 54.5077 30.4449 58.3747 30.3825 62.4671C30.3314 65.9113 30.2804 69.4739 31.9368 72.5686C34.325 77.0218 39.7083 79.7445 48.3987 80.8888C49.0794 80.979 49.7658 81.0635 50.4522 81.1481C55.8128 81.8132 61.3549 82.501 65.2237 85.6126C68.8428 88.5269 70.3631 93.0872 71.8323 97.501C72.0989 98.3071 72.3655 99.1132 72.6434 99.9023C72.8987 100.63 73.171 101.323 73.4546 101.994H75.8825C75.4571 101.075 75.094 100.156 74.782 99.2766C74.5097 98.4931 74.2431 97.7039 73.9765 96.9035C72.4222 92.2191 70.8055 87.377 66.7042 84.0737C62.3306 80.5506 56.4481 79.8234 50.7528 79.1188C50.0721 79.0342 49.3914 78.9497 48.722 78.8595C40.8201 77.8166 35.987 75.4604 33.9506 71.6667C32.5324 69.0117 32.5835 65.7028 32.6289 62.4953C32.6969 58.1492 32.765 53.6509 29.2196 50.5224C25.3623 47.112 19.5875 47.5573 14.4935 47.9575C13.9319 47.997 13.3704 48.0421 12.8201 48.0816C7.5616 48.4423 1.56565 46.9767 0.816868 42.9068C0.459507 40.9339 1.47489 39.006 2.55836 36.9654C3.26176 35.6351 3.98786 34.2597 4.37927 32.7884C5.44572 28.7636 3.6475 24.3048 1.27643e-05 21.8696V24.6317C1.9911 26.6723 2.89872 29.6543 2.19531 32.3036C1.8663 33.5607 1.21962 34.7839 0.538911 36.0691C0.357389 36.413 0.175859 36.7512 1.27643e-05 37.1007L0 46.2044Z" fill="#3792F9"/>
<path d="M41.654 101.994H39.2999C39.175 101.627 39.0559 101.255 38.9311 100.883C37.4619 96.4694 35.9416 91.909 32.3225 88.9947C28.4538 85.8831 22.9117 85.1954 17.551 84.5302C16.8646 84.4457 16.1783 84.3611 15.4976 84.2709C7.82819 83.2619 2.72852 81.0184 0 77.4446V71.8358C0.17536 72.9555 0.529631 74.0402 1.04942 75.0488C3.0859 78.8425 7.91897 81.1988 15.8209 82.2416C16.4903 82.3318 17.171 82.4164 17.8517 82.5009C23.547 83.2055 29.4295 83.9327 33.8031 87.4558C37.9044 90.7591 39.5211 95.6013 41.0754 100.286C41.2682 100.861 41.4554 101.43 41.654 101.994Z" fill="#3792F9"/>
<path d="M221.799 8.41968H127.634V101.994H221.799V8.41968Z" fill="#3F3D56"/>
<path d="M173.015 15.1841C173.014 20.456 171.61 25.6339 168.945 30.1922C166.28 34.7505 162.448 38.5269 157.839 41.138C153.23 43.7491 148.009 45.1019 142.703 45.0591C137.398 45.0163 132.199 43.5795 127.634 40.8944V8.41968H172.237C172.757 10.6374 173.017 12.9071 173.015 15.1841V15.1841Z" fill="#3792F9"/>
<path d="M197.407 51.8245C207.432 51.8245 215.559 43.7484 215.559 33.7861C215.559 23.8238 207.432 15.7478 197.407 15.7478C187.382 15.7478 179.254 23.8238 179.254 33.7861C179.254 43.7484 187.382 51.8245 197.407 51.8245Z" fill="#3792F9"/>
<path d="M156.564 85.0827C163.77 85.0827 169.611 79.278 169.611 72.1176C169.611 64.9572 163.77 59.1526 156.564 59.1526C149.358 59.1526 143.517 64.9572 143.517 72.1176C143.517 79.278 149.358 85.0827 156.564 85.0827Z" fill="#3792F9"/>
<path d="M221.799 86.6611V101.994H203.131C202.338 99.5273 202.306 96.8816 203.04 94.3973C203.774 91.913 205.239 89.7039 207.247 88.0545C209.256 86.405 211.715 85.3908 214.308 85.1425C216.902 84.8942 219.511 85.4231 221.799 86.6611H221.799Z" fill="#3792F9"/>
<path d="M189.465 74.9361C191.345 74.9361 192.869 73.4219 192.869 71.5539C192.869 69.686 191.345 68.1718 189.465 68.1718C187.585 68.1718 186.062 69.686 186.062 71.5539C186.062 73.4219 187.585 74.9361 189.465 74.9361Z" fill="#3792F9"/>
<path d="M350 8.41968H255.835V101.994H350V8.41968Z" fill="#3F3D56"/>
<path d="M301.783 8.41968V46.7512H255.835V49.006H304.052V8.41968H301.783Z" fill="#3792F9"/>
<path d="M346.103 101.994L350 96.4863V92.5686L343.329 101.994H346.103ZM330.276 61.6441L309.395 91.1537L324.91 101.994H328.853L312.555 90.6069L330.827 64.7839L350 78.183V75.4266L330.276 61.6441Z" fill="#3792F9"/>
<path d="M295.543 57.9068L283.511 69.8628L295.543 81.8189L307.575 69.8628L295.543 57.9068ZM286.716 69.8628L295.543 61.0917L304.37 69.8628L295.543 78.634L286.716 69.8628Z" fill="#3792F9"/>
<path d="M46.1539 16.9867C50.8742 16.9867 54.7009 13.1841 54.7009 8.49333C54.7009 3.8026 50.8742 0 46.1539 0C41.4335 0 37.6068 3.8026 37.6068 8.49333C37.6068 13.1841 41.4335 16.9867 46.1539 16.9867Z" fill="#F2F2F2"/>
<path d="M178.205 16.9867C182.925 16.9867 186.752 13.1841 186.752 8.49333C186.752 3.8026 182.925 0 178.205 0C173.485 0 169.658 3.8026 169.658 8.49333C169.658 13.1841 173.485 16.9867 178.205 16.9867Z" fill="#F2F2F2"/>
<path d="M304.274 16.9867C308.994 16.9867 312.821 13.1841 312.821 8.49333C312.821 3.8026 308.994 0 304.274 0C299.553 0 295.727 3.8026 295.727 8.49333C295.727 13.1841 299.553 16.9867 304.274 16.9867Z" fill="#F2F2F2"/>
<path d="M169.444 57.967C173.929 57.967 177.564 54.3545 177.564 49.8983C177.564 45.4421 173.929 41.8297 169.444 41.8297C164.96 41.8297 161.325 45.4421 161.325 49.8983C161.325 54.3545 164.96 57.967 169.444 57.967Z" fill="#FFB8B8"/>
<path d="M165.171 53.7203C165.171 53.7203 167.308 64.7617 166.453 66.885C165.598 69.0083 178.419 66.0357 178.419 66.0357C178.419 66.0357 175.855 54.9943 176.282 52.4463C176.709 49.8983 165.171 53.7203 165.171 53.7203Z" fill="#FFB8B8"/>
<path d="M151.068 91.9404L151.923 103.406L156.165 121.413L157.479 126.338L159.615 118.694L157.479 101.283L156.753 93.444L151.068 91.9404Z" fill="#FFB8B8"/>
<path d="M195.94 90.2417V102.132C195.94 102.132 194.658 117.42 192.094 121.242C189.53 125.064 188.675 105.954 188.675 105.954L190.684 91.9404L195.94 90.2417Z" fill="#FFB8B8"/>
<path d="M157.906 127.188C157.906 127.188 155.769 129.736 157.479 155.64C159.188 181.545 156.624 200.23 162.179 200.23C162.179 200.23 160.47 205.751 165.171 206.176C169.872 206.6 172.009 207.025 172.436 205.751C172.863 204.477 173.718 198.532 172.436 198.532C172.436 198.532 172.436 200.23 173.291 193.436C174.145 186.641 174.145 154.366 176.282 150.12L183.12 165.832C183.12 165.832 183.12 173.052 184.402 176.449C185.684 179.846 187.821 199.381 187.821 199.381L187.393 202.354C187.393 202.354 197.65 204.052 198.077 202.354C198.504 200.655 198.504 198.107 198.077 197.258C197.65 196.408 197.65 196.408 198.504 194.71C199.359 193.011 199.359 191.737 198.932 190.463C198.504 189.189 198.504 161.586 198.504 161.586C198.504 161.586 197.65 128.037 192.521 126.338C187.393 124.64 157.906 127.188 157.906 127.188Z" fill="#2F2E41"/>
<path d="M163.462 202.778L160.043 208.724C160.043 208.724 154.701 206.813 155.769 211.696C164.957 212.333 171.368 211.484 171.368 211.484C171.368 211.484 173.504 212.333 173.932 211.059C174.359 209.785 172.863 205.326 171.581 205.326C170.299 205.326 163.462 202.778 163.462 202.778Z" fill="#2F2E41"/>
<path d="M188.248 201.08C188.248 201.08 184.829 208.724 186.111 209.148C187.393 209.573 198.932 211.272 199.786 211.696C200.641 212.121 204.915 212.546 205.342 209.998C205.769 207.45 203.205 206.6 203.205 206.6C203.205 206.6 198.504 205.751 197.222 201.504C195.94 197.258 188.248 201.08 188.248 201.08Z" fill="#2F2E41"/>
<path d="M179.274 64.7617C179.274 64.7617 167.735 62.6383 165.171 64.7617C162.607 66.885 151.923 71.1317 151.923 73.255C151.923 75.3783 157.479 96.187 157.479 96.187C157.479 96.187 154.487 127.612 157.479 128.462C160.47 129.311 165.598 126.763 171.581 129.736C177.564 132.708 194.658 127.188 194.658 127.188C194.658 127.188 188.248 100.009 189.957 94.913C191.667 89.817 192.949 72.4057 192.949 72.4057C192.949 72.4057 185.684 64.7617 179.274 64.7617Z" fill="#8985A8"/>
<path d="M154.915 71.981L151.923 72.8303C151.923 72.8303 145.513 92.7896 148.077 93.639C150.641 94.4883 157.906 96.187 158.761 96.187C159.615 96.187 154.915 71.981 154.915 71.981Z" fill="#8985A8"/>
<path d="M186.111 69.8577L192.949 72.4057C192.949 72.4057 201.923 88.9677 199.786 91.091C197.65 93.2143 188.248 95.3377 188.248 95.3377L186.111 69.8577Z" fill="#8985A8"/>
<path d="M169.198 39.9324C168.523 39.8108 167.829 39.8413 167.167 40.0215C166.637 40.2546 166.149 40.5724 165.723 40.9624C164.95 41.5748 164.124 42.1185 163.255 42.5873C162.563 42.9609 161.818 43.3066 161.335 43.9249C161.106 44.2374 160.924 44.5807 160.793 44.9444C159.96 47.058 159.736 49.3603 160.147 51.5932C160.193 51.9105 160.289 52.2186 160.431 52.5062C160.875 53.3194 161.856 53.6398 162.683 54.0661C164.252 54.8755 165.441 56.2383 166.728 57.4427C167.206 57.9168 167.743 58.3282 168.326 58.6667C170.162 59.6614 172.406 59.3369 174.467 58.9851C174.613 58.9849 174.758 58.9559 174.892 58.8998C175.027 58.8438 175.149 58.7618 175.252 58.6586C175.354 58.5554 175.436 58.433 175.49 58.2985C175.545 58.164 175.573 58.0201 175.571 57.875L177.198 50.6044C177.493 49.5272 177.633 48.4141 177.615 47.2978C177.502 45.5329 176.54 43.0881 175.237 41.8344C173.718 40.3737 171.183 40.1412 169.198 39.9324Z" fill="#2F2E41"/>
<path d="M114.205 205.505C116.068 205.505 117.577 204.005 117.577 202.154C117.577 200.303 116.068 198.803 114.205 198.803C112.343 198.803 110.833 200.303 110.833 202.154C110.833 204.005 112.343 205.505 114.205 205.505Z" fill="#3792F9"/>
<path d="M114.205 211.835C112.278 211.835 110.395 211.267 108.792 210.203C107.19 209.14 105.942 207.628 105.204 205.859C104.467 204.09 104.274 202.143 104.65 200.265C105.026 198.387 105.954 196.662 107.316 195.308C108.679 193.954 110.415 193.032 112.304 192.659C114.194 192.285 116.153 192.477 117.933 193.209C119.714 193.942 121.235 195.183 122.306 196.775C123.376 198.367 123.948 200.239 123.948 202.154C123.945 204.72 122.917 207.181 121.091 208.996C119.264 210.811 116.788 211.832 114.205 211.835ZM114.205 193.217C112.426 193.217 110.688 193.741 109.209 194.723C107.73 195.705 106.577 197.101 105.897 198.734C105.216 200.367 105.038 202.164 105.385 203.897C105.732 205.631 106.588 207.223 107.846 208.473C109.104 209.723 110.706 210.574 112.451 210.919C114.195 211.263 116.003 211.086 117.647 210.41C119.29 209.734 120.694 208.588 121.683 207.119C122.671 205.649 123.198 203.921 123.198 202.154C123.195 199.784 122.247 197.513 120.561 195.838C118.875 194.162 116.589 193.22 114.205 193.217V193.217Z" fill="#2F2E41"/>
<path d="M278.308 205.93C280.17 205.93 281.68 204.429 281.68 202.578C281.68 200.728 280.17 199.227 278.308 199.227C276.445 199.227 274.935 200.728 274.935 202.578C274.935 204.429 276.445 205.93 278.308 205.93Z" fill="#3792F9"/>
<path d="M278.308 212.26C276.381 212.26 274.497 211.692 272.895 210.628C271.293 209.564 270.044 208.052 269.307 206.283C268.569 204.514 268.377 202.568 268.752 200.69C269.128 198.812 270.056 197.087 271.419 195.733C272.781 194.379 274.517 193.457 276.407 193.083C278.297 192.71 280.256 192.901 282.036 193.634C283.816 194.367 285.338 195.608 286.408 197.2C287.479 198.792 288.05 200.664 288.05 202.578C288.047 205.145 287.02 207.606 285.193 209.421C283.367 211.236 280.891 212.257 278.308 212.26V212.26ZM278.308 193.642C276.529 193.642 274.79 194.166 273.311 195.148C271.833 196.13 270.68 197.526 269.999 199.158C269.319 200.791 269.14 202.588 269.487 204.322C269.834 206.055 270.691 207.648 271.949 208.897C273.206 210.147 274.809 210.998 276.553 211.343C278.298 211.688 280.106 211.511 281.749 210.835C283.392 210.158 284.797 209.013 285.785 207.543C286.773 206.074 287.301 204.346 287.301 202.578C287.298 200.209 286.35 197.938 284.664 196.262C282.978 194.587 280.692 193.645 278.308 193.642V193.642Z" fill="#2F2E41"/>
<path d="M278.308 187.244C280.17 187.244 281.68 185.744 281.68 183.893C281.68 182.042 280.17 180.542 278.308 180.542C276.445 180.542 274.935 182.042 274.935 183.893C274.935 185.744 276.445 187.244 278.308 187.244Z" fill="#3792F9"/>
<path d="M278.308 193.574C276.381 193.574 274.497 193.007 272.895 191.943C271.293 190.879 270.044 189.367 269.307 187.598C268.569 185.829 268.377 183.882 268.752 182.004C269.128 180.126 270.056 178.401 271.419 177.047C272.781 175.693 274.517 174.771 276.407 174.398C278.297 174.024 280.256 174.216 282.036 174.949C283.816 175.681 285.338 176.922 286.408 178.514C287.479 180.107 288.05 181.978 288.05 183.893C288.047 186.46 287.02 188.921 285.193 190.736C283.367 192.551 280.891 193.571 278.308 193.574V193.574ZM278.308 174.957C276.529 174.957 274.79 175.481 273.311 176.463C271.833 177.445 270.68 178.84 269.999 180.473C269.319 182.106 269.14 183.903 269.487 185.637C269.834 187.37 270.691 188.962 271.949 190.212C273.206 191.462 274.809 192.313 276.553 192.658C278.298 193.003 280.106 192.826 281.749 192.149C283.392 191.473 284.797 190.328 285.785 188.858C286.773 187.388 287.301 185.661 287.301 183.893C287.298 181.524 286.35 179.252 284.664 177.577C282.978 175.902 280.692 174.959 278.308 174.957Z" fill="#2F2E41"/>
</g>
<defs>
<clipPath id="clip0_11_2">
<rect width="350" height="212.333" fill="white"/>
</clipPath>
</defs>
</svg>
