<svg width="350" height="294" viewBox="0 0 350 294" fill="none" xmlns="http://www.w3.org/2000/svg">
<g clip-path="url(#clip0_11_76)">
<path d="M98.2853 66.3091C112.561 66.3091 124.133 54.7368 124.133 40.4616C124.133 26.1865 112.561 14.6141 98.2853 14.6141C84.0101 14.6141 72.4378 26.1865 72.4378 40.4616C72.4378 54.7368 84.0101 66.3091 98.2853 66.3091Z" fill="#FF6584"/>
<path d="M249.219 47.9978H218.214V19.8124L249.219 47.9978Z" fill="#3F3D56"/>
<path d="M252.841 47.0751H96.8702V262.558H252.841V47.0751Z" fill="#E6E6E6"/>
<path d="M130.781 62.1835H112.431V100.849H130.781V62.1835Z" fill="white"/>
<path d="M159.163 62.1835H140.814V100.849H159.163V62.1835Z" fill="white"/>
<path d="M128.362 116.986H110.013V155.651H128.362V116.986Z" fill="white"/>
<path d="M159.163 116.986H140.814V155.651H159.163V116.986Z" fill="white"/>
<path d="M128.362 167.693H110.013V206.359H128.362V167.693Z" fill="white"/>
<path d="M158.472 167.002H140.123V205.668H158.472V167.002Z" fill="white"/>
<path d="M185.142 223.98H166.793V262.645H185.142V223.98Z" fill="#CCCCCC"/>
<path d="M212.866 167.002H194.516V205.668H212.866V167.002Z" fill="white"/>
<path d="M243.667 167.002H225.317V205.668H243.667V167.002Z" fill="white"/>
<path d="M213.557 116.577H195.207V155.242H213.557V116.577Z" fill="white"/>
<path d="M244.358 116.577H226.008V155.242H244.358V116.577Z" fill="white"/>
<path d="M213.557 62.1835H195.207V100.849H213.557V62.1835Z" fill="white"/>
<path d="M244.358 62.1835H226.008V100.849H244.358V62.1835Z" fill="white"/>
<path d="M252.841 96.881H96.8702V102.779H252.841V96.881Z" fill="#3F3D56"/>
<path d="M252.841 142.755H96.8702V146.032H252.841V142.755Z" fill="#3F3D56"/>
<path d="M252.841 132.269H96.8702V135.546H252.841V132.269Z" fill="#3F3D56"/>
<path d="M112.271 208.944V182.731H108.994V208.944H112.271Z" fill="#3F3D56"/>
<path d="M130.62 208.944V182.731H127.344V208.944H130.62Z" fill="#3F3D56"/>
<path d="M148.97 208.944V182.731H145.693V208.944H148.97Z" fill="#3F3D56"/>
<path d="M167.319 208.944V182.731H164.043V208.944H167.319Z" fill="#3F3D56"/>
<path d="M185.669 208.944V182.731H182.392V208.944H185.669Z" fill="#3F3D56"/>
<path d="M204.018 208.944V182.731H200.742V208.944H204.018Z" fill="#3F3D56"/>
<path d="M222.368 208.944V182.731H219.091V208.944H222.368Z" fill="#3F3D56"/>
<path d="M240.718 208.944V182.731H237.441V208.944H240.718Z" fill="#3F3D56"/>
<path d="M112.598 159.138V132.925H109.322V159.138H112.598Z" fill="#3F3D56"/>
<path d="M130.948 159.138V132.925H127.671V159.138H130.948Z" fill="#3F3D56"/>
<path d="M149.297 159.138V132.925H146.021V159.138H149.297Z" fill="#3F3D56"/>
<path d="M167.647 159.138V132.925H164.37V159.138H167.647Z" fill="#3F3D56"/>
<path d="M185.997 159.138V132.925H182.72V159.138H185.997Z" fill="#3F3D56"/>
<path d="M204.346 159.138V132.925H201.069V159.138H204.346Z" fill="#3F3D56"/>
<path d="M222.696 159.138V132.925H219.419V159.138H222.696Z" fill="#3F3D56"/>
<path d="M241.045 159.138V132.925H237.769V159.138H241.045Z" fill="#3F3D56"/>
<path d="M112.598 100.813V74.5994H109.322V100.813H112.598Z" fill="#3F3D56"/>
<path d="M130.948 100.813V74.5994H127.671V100.813H130.948Z" fill="#3F3D56"/>
<path d="M149.297 100.813V74.5994H146.021V100.813H149.297Z" fill="#3F3D56"/>
<path d="M167.647 100.813V74.5994H164.37V100.813H167.647Z" fill="#3F3D56"/>
<path d="M185.997 100.813V74.5994H182.72V100.813H185.997Z" fill="#3F3D56"/>
<path d="M204.346 100.813V74.5994H201.069V100.813H204.346Z" fill="#3F3D56"/>
<path d="M222.696 100.813V74.5994H219.419V100.813H222.696Z" fill="#3F3D56"/>
<path d="M241.045 100.813V74.5994H237.769V100.813H241.045Z" fill="#3F3D56"/>
<path d="M252.841 83.7742H96.8702V87.0509H252.841V83.7742Z" fill="#3F3D56"/>
<path d="M252.841 73.2887H96.8702V76.5654H252.841V73.2887Z" fill="#3F3D56"/>
<path d="M252.841 153.896H96.8702V159.794H252.841V153.896Z" fill="#3F3D56"/>
<path d="M260.019 44.6505H89.6929V53.4396H260.019V44.6505Z" fill="#3F3D56"/>
<path d="M130.815 232.341V223.98H120.782V232.341H129.979H130.815Z" fill="white"/>
<path d="M129.979 239.029H120.782V247.39H130.815V239.029H129.979Z" fill="white"/>
<path d="M147.537 223.98H137.504V232.34H147.537V223.98Z" fill="white"/>
<path d="M147.537 239.029H137.504V247.39H147.537V239.029Z" fill="white"/>
<path d="M212.644 232.341V223.98H202.611V232.341H211.808H212.644Z" fill="white"/>
<path d="M211.808 239.029H202.611V247.39H212.644V239.029H211.808Z" fill="white"/>
<path d="M229.366 223.98H219.333V232.34H229.366V223.98Z" fill="white"/>
<path d="M229.366 239.029H219.333V247.39H229.366V239.029Z" fill="white"/>
<path d="M252.841 203.702H96.8702V209.6H252.841V203.702Z" fill="#3F3D56"/>
<path d="M252.841 193.216H96.8702V196.493H252.841V193.216Z" fill="#3F3D56"/>
<path d="M252.841 182.731H96.8702V186.007H252.841V182.731Z" fill="#3F3D56"/>
<path d="M144.089 259.75C144.09 259.567 144.087 259.386 144.082 259.205C143.942 254.374 139.149 253.064 136.58 255.351C135.77 254.647 134.732 254.259 133.658 254.259C132.585 254.259 131.547 254.647 130.736 255.351C128.156 253.1 123.459 254.317 123.304 259.093C123.298 259.274 123.295 259.455 123.295 259.637C123.302 260.642 123.364 261.645 123.479 262.643H143.907C144.018 261.682 144.079 260.717 144.089 259.75V259.75Z" fill="#EE4B6A"/>
<path d="M225.279 259.75C225.279 259.567 225.277 259.386 225.272 259.205C225.131 254.374 220.339 253.064 217.77 255.351C216.959 254.647 215.922 254.259 214.848 254.259C213.774 254.259 212.737 254.647 211.926 255.351C209.346 253.1 204.649 254.317 204.494 259.093C204.488 259.274 204.485 259.455 204.485 259.637C204.492 260.642 204.554 261.645 204.669 262.643H225.097C225.208 261.682 225.269 260.717 225.279 259.75Z" fill="#EE4B6A"/>
<path d="M337.315 262.97H334.156L335.209 201.256H336.262L337.315 262.97Z" fill="#E6E6E6"/>
<path d="M339.948 162.402L345.047 154.521C343.535 150.343 341.788 146.254 339.815 142.273L336.518 144.936L339.129 140.901C336.64 136.003 334.682 132.916 334.682 132.916C334.682 132.916 324.455 149.034 321.037 166.098L327.582 176.212L320.337 170.361C320.079 172.348 319.946 174.351 319.94 176.355C319.94 196.565 326.54 212.949 334.682 212.949C342.825 212.949 349.425 196.565 349.425 176.355C349.425 170.09 348.008 163.535 346.053 157.471L339.948 162.402Z" fill="#E6E6E6"/>
<path d="M326.191 176.65H258.79V226.278H258.831V236.158L268.712 226.278H326.191V176.65Z" fill="#EE4B6A"/>
<path d="M240.956 282.639H181.158V285.003H240.956V282.639Z" fill="#E6E6E6"/>
<path d="M350 282.639H289.879V285.003H350V282.639Z" fill="#E6E6E6"/>
<path d="M132.313 282.639H72.4378V285.003H132.313V282.639Z" fill="#E6E6E6"/>
<path d="M349.754 262.591H0V263.25H349.754V262.591Z" fill="#3F3D56"/>
<path d="M274.32 273.973L281.361 273.976L281.362 272.859L274.32 272.855L274.32 273.973Z" fill="#3F3D56"/>
<path d="M223.409 273.107L224.862 273.443L280.076 273.473L280.573 272.316C281.439 270.332 281.736 268.146 281.431 266.002C281.193 264.405 280.597 262.817 279.244 262.128L276.794 245.808L246.247 245.753L234.428 255.286C234.428 255.286 228.853 255.185 225.824 258.956C224.732 260.358 224.086 262.057 223.973 263.83L223.853 265.792L223.409 273.107Z" fill="#EE4B6A"/>
<path d="M235.536 279.652C239.302 279.652 242.354 276.6 242.354 272.834C242.354 269.069 239.302 266.016 235.536 266.016C231.771 266.016 228.718 269.069 228.718 272.834C228.718 276.6 231.771 279.652 235.536 279.652Z" fill="#3F3D56"/>
<path d="M235.536 276.423C237.518 276.423 239.125 274.816 239.125 272.834C239.125 270.852 237.518 269.246 235.536 269.246C233.554 269.246 231.948 270.852 231.948 272.834C231.948 274.816 233.554 276.423 235.536 276.423Z" fill="#CCCCCC"/>
<path d="M269.179 279.67C272.944 279.67 275.997 276.617 275.997 272.852C275.997 269.087 272.944 266.034 269.179 266.034C265.414 266.034 262.361 269.087 262.361 272.852C262.361 276.617 265.414 279.67 269.179 279.67Z" fill="#3F3D56"/>
<path d="M269.179 276.44C271.161 276.44 272.767 274.834 272.767 272.852C272.767 270.87 271.161 269.264 269.179 269.264C267.197 269.264 265.591 270.87 265.591 272.852C265.591 274.834 267.197 276.44 269.179 276.44Z" fill="#CCCCCC"/>
<path d="M239.123 254.171L255.617 254.179H257.63L261.029 254.181V253.933L261.031 250.944L261.034 247.588H258.773L256.759 247.585L253.193 247.583H251.18L247.062 247.58L239.123 254.171Z" fill="white"/>
<path d="M263.713 254.183L272.429 254.188L272.432 252.478V249.489L272.434 247.595H271.158L269.145 247.592L263.715 247.59L263.713 254.183Z" fill="white"/>
<path d="M259.907 261.225L261.025 261.225L261.026 259.101L259.908 259.101L259.907 261.225Z" fill="#3F3D56"/>
<path d="M243.593 257.192L243.594 256.074L241.47 256.073L241.47 257.191L243.593 257.192Z" fill="#3F3D56"/>
<path d="M242.81 256.564L242.687 256.564C242.067 256.564 241.473 256.317 241.036 255.879C240.598 255.441 240.352 254.846 240.352 254.227V254.227C240.353 253.607 240.599 253.013 241.037 252.575C241.476 252.138 242.07 251.892 242.69 251.892L242.812 251.892L242.81 256.564Z" fill="#3F3D56"/>
<path d="M223.853 265.792C224.698 265.884 225.549 265.675 226.255 265.201C226.961 264.727 227.477 264.02 227.713 263.203C227.949 262.386 227.888 261.512 227.543 260.735C227.197 259.958 226.589 259.328 225.824 258.956C224.732 260.358 224.086 262.057 223.973 263.83L223.853 265.792Z" fill="#3F3D56"/>
<path d="M256.759 247.585L261.029 253.933L261.031 250.944L258.773 247.587L256.759 247.585Z" fill="#F2F2F2"/>
<path d="M269.145 247.592L272.432 252.477V249.488L271.158 247.595L269.145 247.592Z" fill="#F2F2F2"/>
<path d="M251.18 247.583L255.617 254.178H257.63L253.193 247.583H251.18Z" fill="#F2F2F2"/>
<path d="M161.662 0.412862L161.616 0.43768C161.124 0.706802 160.572 0.848787 160.012 0.850754C159.451 0.852722 158.898 0.714608 158.404 0.448944C158.376 0.433589 158.348 0.418427 158.319 0.403459C157.825 0.139811 157.274 0.00281974 156.714 0.00475292C156.154 0.0066861 155.603 0.147485 155.111 0.414536L155.069 0.43768C154.577 0.706802 154.025 0.848787 153.464 0.850754C152.903 0.852722 152.351 0.714608 151.857 0.448944C151.827 0.433004 151.798 0.417271 151.769 0.401743C151.281 0.139304 150.735 0.00147197 150.181 0.000491354C149.627 -0.000489267 149.081 0.135413 148.592 0.396123C147.098 1.20063 145.079 2.57615 145.088 4.12957C145.088 4.191 145.091 4.25237 145.098 4.31345C145.272 5.92669 150.534 6.33774 153.424 5.57747C155.579 6.06912 157.817 6.06912 159.971 5.57747C162.85 6.34991 168.218 5.90737 168.375 4.27562C168.381 4.21448 168.384 4.15309 168.384 4.09166C168.375 2.5374 166.337 1.1763 164.834 0.383115C164.344 0.126547 163.798 -0.00498066 163.244 0.000208853C162.691 0.00539837 162.147 0.147143 161.662 0.412862V0.412862Z" fill="#E6E6E6"/>
<path d="M306.622 53.6765L306.577 53.7013C306.085 53.9704 305.533 54.1124 304.972 54.1144C304.412 54.1163 303.859 53.9782 303.365 53.7126C303.337 53.6972 303.308 53.682 303.28 53.6671C302.786 53.4034 302.235 53.2664 301.675 53.2684C301.115 53.2703 300.564 53.4111 300.072 53.6781L300.03 53.7013C299.538 53.9704 298.986 54.1124 298.425 54.1144C297.864 54.1163 297.312 53.9782 296.818 53.7126C296.788 53.6966 296.759 53.6809 296.73 53.6654C296.242 53.4029 295.696 53.2651 295.142 53.2641C294.588 53.2631 294.042 53.399 293.553 53.6597C292.059 54.4642 290.04 55.8398 290.048 57.3932C290.049 57.4546 290.052 57.516 290.059 57.5771C290.233 59.1903 295.494 59.6014 298.385 58.8411C300.54 59.3327 302.777 59.3327 304.932 58.8411C307.81 59.6135 313.179 59.171 313.336 57.5392C313.342 57.4781 313.345 57.4167 313.345 57.3553C313.336 55.801 311.298 54.4399 309.795 53.6467C309.305 53.3902 308.758 53.2586 308.205 53.2638C307.652 53.269 307.108 53.4108 306.622 53.6765V53.6765Z" fill="#E6E6E6"/>
<path d="M52.7717 56.6498L52.7261 56.6746C52.234 56.9437 51.6825 57.0857 51.1217 57.0877C50.5608 57.0897 50.0083 56.9515 49.5144 56.6859C49.4859 56.6705 49.4576 56.6554 49.4295 56.6404C48.9355 56.3767 48.3839 56.2398 47.824 56.2417C47.2641 56.2436 46.7135 56.3844 46.2213 56.6515L46.1788 56.6746C45.6868 56.9437 45.1353 57.0857 44.5744 57.0877C44.0136 57.0897 43.4611 56.9515 42.9671 56.6859C42.9376 56.6699 42.9082 56.6542 42.879 56.6387C42.3909 56.3762 41.8455 56.2384 41.2913 56.2374C40.7371 56.2364 40.1912 56.3723 39.7022 56.6331C38.2083 57.4376 36.1888 58.8131 36.1976 60.3665C36.198 60.4279 36.2015 60.4893 36.2081 60.5504C36.3818 62.1636 41.6436 62.5747 44.5342 61.8144C46.6889 62.3061 48.9267 62.3061 51.0814 61.8144C53.9597 62.5868 59.3285 62.1443 59.4854 60.5126C59.4913 60.4514 59.4941 60.39 59.4938 60.3286C59.4849 58.7743 57.4475 57.4132 55.9442 56.62C55.4538 56.3635 54.9077 56.232 54.3542 56.2371C53.8008 56.2423 53.2572 56.3841 52.7717 56.6498V56.6498Z" fill="#E6E6E6"/>
<path d="M43.3914 286.25H36.3499V287.368H43.3914V286.25Z" fill="#3F3D56"/>
<path d="M94.3025 286.5L92.8497 286.836L37.6353 286.866L37.1388 285.709C36.2728 283.725 35.9756 281.539 36.2803 279.395C36.5181 277.798 37.114 276.21 38.4675 275.521L40.9177 259.201L71.465 259.146L83.2837 268.679C83.2837 268.679 88.8587 268.579 91.8875 272.349C92.98 273.751 93.6251 275.45 93.7387 277.224L93.8583 279.185L94.3025 286.5Z" fill="#EE4B6A"/>
<path d="M82.1753 293.045C85.9408 293.045 88.9933 289.993 88.9933 286.227C88.9933 282.462 85.9408 279.409 82.1753 279.409C78.4099 279.409 75.3574 282.462 75.3574 286.227C75.3574 289.993 78.4099 293.045 82.1753 293.045Z" fill="#3F3D56"/>
<path d="M82.1753 289.816C84.1572 289.816 85.7638 288.209 85.7638 286.227C85.7638 284.246 84.1572 282.639 82.1753 282.639C80.1935 282.639 78.5869 284.246 78.5869 286.227C78.5869 288.209 80.1935 289.816 82.1753 289.816Z" fill="#CCCCCC"/>
<path d="M48.5325 293.063C52.298 293.063 55.3505 290.011 55.3505 286.245C55.3505 282.48 52.298 279.427 48.5325 279.427C44.7671 279.427 41.7146 282.48 41.7146 286.245C41.7146 290.011 44.7671 293.063 48.5325 293.063Z" fill="#3F3D56"/>
<path d="M48.5325 289.834C50.5144 289.834 52.1209 288.227 52.1209 286.245C52.1209 284.264 50.5144 282.657 48.5325 282.657C46.5507 282.657 44.9441 284.264 44.9441 286.245C44.9441 288.227 46.5507 289.834 48.5325 289.834Z" fill="#CCCCCC"/>
<path d="M78.588 267.564L62.0948 267.572H60.0815L56.6824 267.574V267.326L56.6801 264.337L56.6777 260.981H58.9392L60.9525 260.978L64.5186 260.976H66.5319L70.6491 260.974L78.588 267.564Z" fill="white"/>
<path d="M53.9987 267.577L45.2821 267.581L45.2798 265.871V262.882L45.2774 260.988H46.5537L48.567 260.986L53.9963 260.983L53.9987 267.577Z" fill="white"/>
<path d="M57.8027 272.493H56.685V274.617H57.8027V272.493Z" fill="#3F3D56"/>
<path d="M76.2432 270.583L76.2426 269.465L74.1189 269.466L74.1195 270.584L76.2432 270.583Z" fill="#3F3D56"/>
<path d="M74.9003 265.285H75.0233C75.3301 265.285 75.6338 265.345 75.9172 265.463C76.2006 265.58 76.4582 265.752 76.6751 265.969C76.892 266.186 77.0641 266.444 77.1815 266.727C77.2989 267.01 77.3593 267.314 77.3593 267.621V267.621C77.3593 268.24 77.1132 268.835 76.6751 269.273C76.237 269.711 75.6428 269.957 75.0233 269.957H74.9003V265.285H74.9003Z" fill="#3F3D56"/>
<path d="M93.8583 279.185C93.013 279.277 92.1625 279.068 91.4564 278.594C90.7503 278.121 90.234 277.413 89.9985 276.596C89.763 275.779 89.8233 274.905 90.1688 274.128C90.5144 273.352 91.123 272.722 91.8875 272.349C92.98 273.751 93.6251 275.45 93.7387 277.224L93.8583 279.185Z" fill="#3F3D56"/>
<path d="M60.9525 260.978L56.6824 267.326L56.6801 264.337L58.9392 260.981L60.9525 260.978Z" fill="#F2F2F2"/>
<path d="M48.567 260.986L45.2798 265.871V262.882L46.5537 260.988L48.567 260.986Z" fill="#F2F2F2"/>
<path d="M66.5319 260.976L62.0948 267.572H60.0815L64.5186 260.976H66.5319Z" fill="#F2F2F2"/>
<path d="M290.13 212.041L281.522 200.975L286.528 197.082L290.603 202.322L304.37 187.789L308.974 192.151L290.13 212.041Z" fill="white"/>
<path d="M2.49742 189.207H69.8979V238.835H69.8569V248.716L59.9763 238.835H2.49742V189.207Z" fill="#EE4B6A"/>
<path d="M34.2872 225.78L25.6801 214.714L30.6856 210.821L34.7606 216.061L48.5276 201.528L53.1313 205.889L34.2872 225.78Z" fill="white"/>
</g>
<defs>
<clipPath id="clip0_11_76">
<rect width="350" height="293.063" fill="white"/>
</clipPath>
</defs>
</svg>
