<svg width="318" height="369" viewBox="0 0 318 369" fill="none" xmlns="http://www.w3.org/2000/svg">
<circle cx="5" cy="5" r="5" fill="#D9D9D9"/>
<circle cx="117" cy="5" r="5" fill="#D9D9D9"/>
<circle cx="229" cy="5" r="5" fill="#D9D9D9"/>
<circle cx="229" cy="85" r="5" fill="#D9D9D9"/>
<circle cx="229" cy="125" r="5" fill="#D9D9D9"/>
<circle cx="229" cy="165" r="5" fill="#D9D9D9"/>
<circle cx="5" cy="45" r="5" fill="#D9D9D9"/>
<circle cx="117" cy="45" r="5" fill="#D9D9D9"/>
<circle cx="229" cy="45" r="5" fill="#D9D9D9"/>
<circle cx="117" cy="85" r="5" fill="#D9D9D9"/>
<circle cx="5" cy="85" r="5" fill="#D9D9D9"/>
<circle cx="33" cy="5" r="5" fill="#D9D9D9"/>
<circle cx="145" cy="5" r="5" fill="#D9D9D9"/>
<circle cx="257" cy="5" r="5" fill="#D9D9D9"/>
<circle cx="257" cy="85" r="5" fill="#D9D9D9"/>
<circle cx="257" cy="125" r="5" fill="#D9D9D9"/>
<circle cx="257" cy="165" r="5" fill="#D9D9D9"/>
<circle cx="33" cy="45" r="5" fill="#D9D9D9"/>
<circle cx="145" cy="45" r="5" fill="#D9D9D9"/>
<circle cx="257" cy="45" r="5" fill="#D9D9D9"/>
<circle cx="145" cy="85" r="5" fill="#D9D9D9"/>
<circle cx="33" cy="85" r="5" fill="#D9D9D9"/>
<circle cx="61" cy="5" r="5" fill="#D9D9D9"/>
<circle cx="173" cy="5" r="5" fill="#D9D9D9"/>
<circle cx="285" cy="5" r="5" fill="#D9D9D9"/>
<circle cx="285" cy="85" r="5" fill="#D9D9D9"/>
<circle cx="285" cy="125" r="5" fill="#D9D9D9"/>
<circle cx="285" cy="165" r="5" fill="#D9D9D9"/>
<circle cx="61" cy="45" r="5" fill="#D9D9D9"/>
<circle cx="173" cy="45" r="5" fill="#D9D9D9"/>
<circle cx="285" cy="45" r="5" fill="#D9D9D9"/>
<circle cx="173" cy="85" r="5" fill="#D9D9D9"/>
<circle cx="61" cy="85" r="5" fill="#D9D9D9"/>
<circle cx="89" cy="5" r="5" fill="#D9D9D9"/>
<circle cx="201" cy="5" r="5" fill="#D9D9D9"/>
<circle cx="313" cy="5" r="5" fill="#D9D9D9"/>
<circle cx="313" cy="85" r="5" fill="#D9D9D9"/>
<circle cx="313" cy="125" r="5" fill="#D9D9D9"/>
<circle cx="313" cy="165" r="5" fill="#D9D9D9"/>
<circle cx="89" cy="45" r="5" fill="#D9D9D9"/>
<circle cx="201" cy="45" r="5" fill="#D9D9D9"/>
<circle cx="313" cy="45" r="5" fill="#D9D9D9"/>
<circle cx="201" cy="85" r="5" fill="#D9D9D9"/>
<circle cx="89" cy="85" r="5" fill="#D9D9D9"/>
<circle cx="229" cy="204" r="5" fill="#D9D9D9"/>
<circle cx="229" cy="284" r="5" fill="#D9D9D9"/>
<circle cx="229" cy="324" r="5" fill="#D9D9D9"/>
<circle cx="229" cy="364" r="5" fill="#D9D9D9"/>
<circle cx="229" cy="244" r="5" fill="#D9D9D9"/>
<circle cx="257" cy="204" r="5" fill="#D9D9D9"/>
<circle cx="257" cy="284" r="5" fill="#D9D9D9"/>
<circle cx="257" cy="324" r="5" fill="#D9D9D9"/>
<circle cx="257" cy="364" r="5" fill="#D9D9D9"/>
<circle cx="257" cy="244" r="5" fill="#D9D9D9"/>
<circle cx="285" cy="204" r="5" fill="#D9D9D9"/>
<circle cx="285" cy="284" r="5" fill="#D9D9D9"/>
<circle cx="285" cy="324" r="5" fill="#D9D9D9"/>
<circle cx="285" cy="364" r="5" fill="#D9D9D9"/>
<circle cx="285" cy="244" r="5" fill="#D9D9D9"/>
<circle cx="313" cy="204" r="5" fill="#D9D9D9"/>
<circle cx="313" cy="284" r="5" fill="#D9D9D9"/>
<circle cx="313" cy="324" r="5" fill="#D9D9D9"/>
<circle cx="313" cy="364" r="5" fill="#D9D9D9"/>
<circle cx="313" cy="244" r="5" fill="#D9D9D9"/>
</svg>
